<svg width="1366" height="698" viewBox="0 0 1366 698" fill="none" xmlns="http://www.w3.org/2000/svg">
<path d="M181.058 19.6191C112.438 -1.75577 0 0.0369936 0 0.0369936V698H1366C1366 698 1343.97 696.878 1330.15 693.804C1302.94 687.754 1287.97 680.287 1263.82 664.431C1240.45 649.091 1232.88 630.671 1209.44 615.475C1180.01 596.39 1158.8 598.702 1127.58 584.004C1092.62 567.548 1073.42 556.676 1040.93 534.349C1012.97 515.133 1000.98 497.325 972.214 479.799C939.411 459.81 916.14 461.665 883.179 442.034C853.299 424.237 838.31 410.302 811.473 386.784C781.933 360.896 770.861 338.012 739.767 314.75C708.443 291.315 687.94 283.846 653.122 268.592C613.556 251.257 587.82 253.532 549.149 233.624C517.567 217.365 501.45 204.129 472.662 181.871C436.988 154.289 423.929 126.679 386.018 103.543C349.307 81.1386 324.128 81.7203 285.031 65.777C244.022 49.0538 223.024 32.6915 181.058 19.6191Z" fill="#198642"/>
<path d="M1184.94 678.381C1253.56 699.756 1366 697.963 1366 697.963V0H0C0 0 22.0289 1.12244 35.8529 4.19617C63.0613 10.2458 78.0262 17.7127 102.181 33.5693C125.548 48.9087 133.123 67.3293 156.558 82.5247C185.993 101.61 207.203 99.298 238.422 113.996C273.376 130.452 292.578 141.324 325.067 163.651C353.03 182.867 365.024 200.675 393.786 218.201C426.589 238.19 449.86 236.335 482.821 255.966C512.701 273.763 527.69 287.698 554.527 311.216C584.067 337.104 595.139 359.988 626.233 383.25C657.557 406.685 678.06 414.154 712.878 429.408C752.444 446.743 778.18 444.468 816.851 464.376C848.433 480.635 864.55 493.871 893.338 516.129C929.012 543.711 942.071 571.321 979.982 594.457C1016.69 616.861 1041.87 616.28 1080.97 632.223C1121.98 648.946 1142.98 665.309 1184.94 678.381Z" fill="#157539"/>
<path d="M1325 10C1316.91 3.75962 1296 0 1296 0H1366V50C1366 50 1359.46 39.6889 1354 35C1349.03 30.7353 1345.1 30.9012 1340 26.875C1333.34 21.611 1331.71 15.1715 1325 10Z" fill="#A12015"/>
<path d="M41 688C49.0941 694.24 70 698 70 698H0V648C0 648 6.5363 658.311 12 663C16.9694 667.265 20.9048 667.099 26 671.125C32.6615 676.389 34.2923 682.829 41 688Z" fill="#FF8000"/>
</svg>
