<svg width="135" height="37" viewBox="0 0 135 37" fill="none" xmlns="http://www.w3.org/2000/svg">
<path d="M17.369 4.56269C9.06572 7.62411 3.21549 9.85227 1.04675 17.4777C-0.56659 23.1503 -0.784361 28.4017 3.83348 32.292C7.31031 35.221 10.7429 34.8058 15.3785 34.9509C23.0445 35.1909 26.8934 32.6655 34.5536 32.292C44.9645 31.7843 49.1694 36.1484 59.5679 36.8502C70.4292 37.5832 76.7116 35.4122 87.5893 34.9509C99.2886 34.4548 105.744 38.3656 116.895 34.9509C123.674 32.875 129.026 31.8054 132.421 25.8344C135.173 20.9942 135.959 16.812 133.615 11.7799C130.865 5.87411 125.308 5.09673 118.885 3.04327C108.55 -0.26152 102.07 3.89141 91.2054 3.04327C81.8761 2.31496 76.8898 0.115475 67.53 0.00444923C57.5601 -0.113814 52.1148 2.15723 42.1875 3.04327C32.4355 3.91366 26.1031 1.34241 17.369 4.56269Z" fill="#A12015"/>
</svg>
