<svg width="402" height="402" viewBox="0 0 402 402" fill="none" xmlns="http://www.w3.org/2000/svg">
<rect width="307.571" height="38.4464" transform="matrix(-0.925805 -0.378002 -0.378002 0.925805 299.284 365.42)" fill="white"/>
<rect width="307.571" height="38.4464" transform="matrix(-0.925805 -0.378002 -0.378002 0.925805 313.817 329.826)" fill="#A12015"/>
<rect width="307.571" height="38.4464" transform="matrix(-0.925805 -0.378002 -0.378002 0.925805 328.35 294.233)" fill="white"/>
<rect width="307.571" height="38.4464" transform="matrix(-0.925805 -0.378002 -0.378002 0.925805 342.883 258.639)" fill="#A12015"/>
<rect width="307.571" height="38.4464" transform="matrix(-0.925805 -0.378002 -0.378002 0.925805 357.416 223.045)" fill="white"/>
<rect width="307.571" height="38.4464" transform="matrix(-0.925805 -0.378002 -0.378002 0.925805 371.948 187.451)" fill="#A12015"/>
<rect width="307.571" height="38.4464" transform="matrix(-0.925805 -0.378002 -0.378002 0.925805 386.481 151.857)" fill="white"/>
<rect width="307.571" height="38.4464" transform="matrix(-0.925805 -0.378002 -0.378002 0.925805 401.014 116.263)" fill="#A12015"/>
<g opacity="0.5">
<rect width="307.571" height="38.4464" transform="matrix(0.378002 -0.925805 -0.925805 -0.378002 35.5945 299.284)" fill="white"/>
<rect width="307.571" height="38.4464" transform="matrix(0.378002 -0.925805 -0.925805 -0.378002 71.1882 313.817)" fill="#A12015"/>
<rect width="307.571" height="38.4464" transform="matrix(0.378002 -0.925805 -0.925805 -0.378002 106.782 328.35)" fill="white"/>
<rect width="307.571" height="38.4464" transform="matrix(0.378002 -0.925805 -0.925805 -0.378002 142.376 342.883)" fill="#A12015"/>
<rect width="307.571" height="38.4464" transform="matrix(0.378002 -0.925805 -0.925805 -0.378002 177.97 357.416)" fill="white"/>
<rect width="307.571" height="38.4464" transform="matrix(0.378002 -0.925805 -0.925805 -0.378002 213.564 371.949)" fill="#A12015"/>
<rect width="307.571" height="38.4464" transform="matrix(0.378002 -0.925805 -0.925805 -0.378002 249.158 386.481)" fill="white"/>
<rect width="307.571" height="38.4464" transform="matrix(0.378002 -0.925805 -0.925805 -0.378002 284.751 401.014)" fill="#A12015"/>
</g>
</svg>
