<?xml version="1.0" encoding="UTF-8" standalone="no"?>
<svg
   width="116.03491"
   height="332.11432"
   viewBox="0 0 116.03491 332.11432"
   fill="none"
   version="1.1"
   id="svg76"
   sodipodi:docname="background_big_italian_texture.svg"
   xml:space="preserve"
   inkscape:export-filename="background_triangle_italian_texture.svg"
   inkscape:export-xdpi="96"
   inkscape:export-ydpi="96"
   xmlns:inkscape="http://www.inkscape.org/namespaces/inkscape"
   xmlns:sodipodi="http://sodipodi.sourceforge.net/DTD/sodipodi-0.dtd"
   xmlns="http://www.w3.org/2000/svg"
   xmlns:svg="http://www.w3.org/2000/svg"><defs
     id="defs80"><clipPath
       clipPathUnits="userSpaceOnUse"
       id="clipPath566"><path
         style="fill:#000000;stroke-width:49.4705;stop-color:#000000"
         d="M 284.97904,401.01387 V 68.89956 l 116.03501,47.27139 z"
         id="path568" /></clipPath></defs><sodipodi:namedview
     id="namedview78"
     pagecolor="#ffffff"
     bordercolor="#000000"
     borderopacity="0.25"
     inkscape:showpageshadow="2"
     inkscape:pageopacity="0.0"
     inkscape:pagecheckerboard="0"
     inkscape:deskcolor="#d1d1d1"
     showgrid="false" /><g
     id="g445"
     transform="translate(-284.97907,-68.899555)"
     clip-path="url(#clipPath566)"><rect
       width="307.57101"
       height="38.4464"
       transform="matrix(-0.925805,-0.378002,-0.378002,0.925805,299.284,365.42)"
       fill="#ffffff"
       id="rect411"
       x="0"
       y="0" /><rect
       width="307.57101"
       height="38.4464"
       transform="matrix(-0.925805,-0.378002,-0.378002,0.925805,313.817,329.826)"
       fill="#a12015"
       id="rect413"
       x="0"
       y="0" /><rect
       width="307.57101"
       height="38.4464"
       transform="matrix(-0.925805,-0.378002,-0.378002,0.925805,328.35,294.233)"
       fill="#ffffff"
       id="rect415"
       x="0"
       y="0" /><rect
       width="307.57101"
       height="38.4464"
       transform="matrix(-0.925805,-0.378002,-0.378002,0.925805,342.883,258.639)"
       fill="#a12015"
       id="rect417"
       x="0"
       y="0" /><rect
       width="307.57101"
       height="38.4464"
       transform="matrix(-0.925805,-0.378002,-0.378002,0.925805,357.416,223.045)"
       fill="#ffffff"
       id="rect419"
       x="0"
       y="0" /><rect
       width="307.57101"
       height="38.4464"
       transform="matrix(-0.925805,-0.378002,-0.378002,0.925805,371.948,187.451)"
       fill="#a12015"
       id="rect421"
       x="0"
       y="0" /><rect
       width="307.57101"
       height="38.4464"
       transform="matrix(-0.925805,-0.378002,-0.378002,0.925805,386.481,151.857)"
       fill="#ffffff"
       id="rect423"
       x="0"
       y="0" /><rect
       width="307.57101"
       height="38.4464"
       transform="matrix(-0.925805,-0.378002,-0.378002,0.925805,401.014,116.263)"
       fill="#a12015"
       id="rect425"
       x="0"
       y="0" /><g
       opacity="0.5"
       id="g443"><rect
         width="307.57101"
         height="38.4464"
         transform="matrix(0.378002,-0.925805,-0.925805,-0.378002,35.5945,299.284)"
         fill="#ffffff"
         id="rect427"
         x="0"
         y="0" /><rect
         width="307.57101"
         height="38.4464"
         transform="matrix(0.378002,-0.925805,-0.925805,-0.378002,71.1882,313.817)"
         fill="#a12015"
         id="rect429"
         x="0"
         y="0" /><rect
         width="307.57101"
         height="38.4464"
         transform="matrix(0.378002,-0.925805,-0.925805,-0.378002,106.782,328.35)"
         fill="#ffffff"
         id="rect431"
         x="0"
         y="0" /><rect
         width="307.57101"
         height="38.4464"
         transform="matrix(0.378002,-0.925805,-0.925805,-0.378002,142.376,342.883)"
         fill="#a12015"
         id="rect433"
         x="0"
         y="0" /><rect
         width="307.57101"
         height="38.4464"
         transform="matrix(0.378002,-0.925805,-0.925805,-0.378002,177.97,357.416)"
         fill="#ffffff"
         id="rect435"
         x="0"
         y="0" /><rect
         width="307.57101"
         height="38.4464"
         transform="matrix(0.378002,-0.925805,-0.925805,-0.378002,213.564,371.949)"
         fill="#a12015"
         id="rect437"
         x="0"
         y="0" /><rect
         width="307.57101"
         height="38.4464"
         transform="matrix(0.378002,-0.925805,-0.925805,-0.378002,249.158,386.481)"
         fill="#ffffff"
         id="rect439"
         x="0"
         y="0" /><rect
         width="307.57101"
         height="38.4464"
         transform="matrix(0.378002,-0.925805,-0.925805,-0.378002,284.751,401.014)"
         fill="#a12015"
         id="rect441"
         x="0"
         y="0" /></g></g></svg>
