<svg width="104" height="39" viewBox="0 0 104 39" fill="none" xmlns="http://www.w3.org/2000/svg">
<path d="M13.3806 4.80932C6.98397 8.03623 2.47712 10.3848 0.806387 18.4224C-0.436484 24.4017 -0.604248 29.9369 2.9532 34.0375C5.63165 37.1248 8.276 36.6872 11.8471 36.8402C17.7528 37.0931 20.7179 34.4312 26.619 34.0375C34.6393 33.5024 37.8786 38.1023 45.8894 38.8421C54.2566 39.6147 59.0964 37.3264 67.4762 36.8402C76.489 36.3172 81.4622 40.4394 90.0523 36.8402C95.2745 34.6521 99.3978 33.5246 102.013 27.2309C104.133 22.129 104.739 17.7208 102.933 12.4166C100.814 6.19163 96.5332 5.37223 91.5858 3.20777C83.6234 -0.275656 78.6314 4.10176 70.2619 3.20777C63.0749 2.4401 59.2336 0.121717 52.0231 0.00468973C44.3426 -0.119966 40.1477 2.27383 32.5 3.20777C24.9874 4.12521 20.109 1.41498 13.3806 4.80932Z" fill="#198642"/>
</svg>
