<?xml version="1.0" encoding="UTF-8" standalone="no"?>
<svg
   width="402"
   height="402"
   viewBox="0 0 402 402"
   fill="none"
   version="1.1"
   id="svg76"
   sodipodi:docname="background_big_italian_texture.svg"
   xml:space="preserve"
   xmlns:inkscape="http://www.inkscape.org/namespaces/inkscape"
   xmlns:sodipodi="http://sodipodi.sourceforge.net/DTD/sodipodi-0.dtd"
   xmlns="http://www.w3.org/2000/svg"
   xmlns:svg="http://www.w3.org/2000/svg"><defs
     id="defs80" /><sodipodi:namedview
     id="namedview78"
     pagecolor="#ffffff"
     bordercolor="#000000"
     borderopacity="0.25"
     inkscape:showpageshadow="2"
     inkscape:pageopacity="0.0"
     inkscape:pagecheckerboard="0"
     inkscape:deskcolor="#d1d1d1"
     showgrid="false" /><g
     id="g409"><rect
       width="307.57101"
       height="38.4464"
       transform="matrix(-0.925805,-0.378002,-0.378002,0.925805,299.284,365.42)"
       fill="#ffffff"
       id="rect42"
       x="0"
       y="0" /><rect
       width="307.57101"
       height="38.4464"
       transform="matrix(-0.925805,-0.378002,-0.378002,0.925805,313.817,329.826)"
       fill="#a12015"
       id="rect44"
       x="0"
       y="0" /><rect
       width="307.57101"
       height="38.4464"
       transform="matrix(-0.925805,-0.378002,-0.378002,0.925805,328.35,294.233)"
       fill="#ffffff"
       id="rect46"
       x="0"
       y="0" /><rect
       width="307.57101"
       height="38.4464"
       transform="matrix(-0.925805,-0.378002,-0.378002,0.925805,342.883,258.639)"
       fill="#a12015"
       id="rect48"
       x="0"
       y="0" /><rect
       width="307.57101"
       height="38.4464"
       transform="matrix(-0.925805,-0.378002,-0.378002,0.925805,357.416,223.045)"
       fill="#ffffff"
       id="rect50"
       x="0"
       y="0" /><rect
       width="307.57101"
       height="38.4464"
       transform="matrix(-0.925805,-0.378002,-0.378002,0.925805,371.948,187.451)"
       fill="#a12015"
       id="rect52"
       x="0"
       y="0" /><rect
       width="307.57101"
       height="38.4464"
       transform="matrix(-0.925805,-0.378002,-0.378002,0.925805,386.481,151.857)"
       fill="#ffffff"
       id="rect54"
       x="0"
       y="0" /><rect
       width="307.57101"
       height="38.4464"
       transform="matrix(-0.925805,-0.378002,-0.378002,0.925805,401.014,116.263)"
       fill="#a12015"
       id="rect56"
       x="0"
       y="0" /><g
       opacity="0.5"
       id="g74"><rect
         width="307.57101"
         height="38.4464"
         transform="matrix(0.378002,-0.925805,-0.925805,-0.378002,35.5945,299.284)"
         fill="#ffffff"
         id="rect58"
         x="0"
         y="0" /><rect
         width="307.57101"
         height="38.4464"
         transform="matrix(0.378002,-0.925805,-0.925805,-0.378002,71.1882,313.817)"
         fill="#a12015"
         id="rect60"
         x="0"
         y="0" /><rect
         width="307.57101"
         height="38.4464"
         transform="matrix(0.378002,-0.925805,-0.925805,-0.378002,106.782,328.35)"
         fill="#ffffff"
         id="rect62"
         x="0"
         y="0" /><rect
         width="307.57101"
         height="38.4464"
         transform="matrix(0.378002,-0.925805,-0.925805,-0.378002,142.376,342.883)"
         fill="#a12015"
         id="rect64"
         x="0"
         y="0" /><rect
         width="307.57101"
         height="38.4464"
         transform="matrix(0.378002,-0.925805,-0.925805,-0.378002,177.97,357.416)"
         fill="#ffffff"
         id="rect66"
         x="0"
         y="0" /><rect
         width="307.57101"
         height="38.4464"
         transform="matrix(0.378002,-0.925805,-0.925805,-0.378002,213.564,371.949)"
         fill="#a12015"
         id="rect68"
         x="0"
         y="0" /><rect
         width="307.57101"
         height="38.4464"
         transform="matrix(0.378002,-0.925805,-0.925805,-0.378002,249.158,386.481)"
         fill="#ffffff"
         id="rect70"
         x="0"
         y="0" /><rect
         width="307.57101"
         height="38.4464"
         transform="matrix(0.378002,-0.925805,-0.925805,-0.378002,284.751,401.014)"
         fill="#a12015"
         id="rect72"
         x="0"
         y="0" /></g></g></svg>
