<svg width="1366" height="821" viewBox="0 0 1366 821" fill="none" xmlns="http://www.w3.org/2000/svg">
<path d="M1184.94 797.924C1253.56 823.065 1366 820.956 1366 820.956V0H0C0 0 22.0289 1.32025 35.8529 4.93561C63.0613 12.0513 78.0262 20.834 102.181 39.4849C125.548 57.5273 133.123 79.194 156.558 97.067C185.993 119.516 207.203 116.796 238.422 134.084C273.376 153.44 292.578 166.227 325.067 192.489C353.03 215.091 365.024 236.037 393.786 256.652C426.589 280.163 449.86 277.982 482.821 301.072C512.701 322.004 527.69 338.395 554.527 366.058C584.067 396.507 595.139 423.424 626.233 450.786C657.557 478.35 678.06 487.135 712.878 505.077C752.444 525.467 778.18 522.791 816.851 546.208C848.433 565.331 864.55 580.9 893.338 607.08C929.012 639.522 942.071 671.998 979.982 699.211C1016.69 725.563 1041.87 724.879 1080.97 743.632C1121.98 763.302 1142.98 782.548 1184.94 797.924Z" fill="#157539"/>
</svg>
