<svg width="42" height="64" viewBox="0 0 42 64" fill="none" xmlns="http://www.w3.org/2000/svg">
<path d="M36.3103 16C36.954 16 37.8735 16.4138 39.0689 17.2414C40.2644 18.069 41 18.8506 41.2758 19.5862C38.1494 21.4253 35.7586 23.6322 34.1034 26.2069C32.4483 28.6897 31.6207 30.6207 31.6207 32C31.6207 33.1034 32.0804 34.2069 33 35.3103C34.0115 36.4138 34.977 37.5172 35.8965 38.6207C36.908 39.7241 37.4138 40.8276 37.4138 41.931C37.4138 43.5862 36.4483 45.0115 34.5172 46.2069C32.6781 47.4023 30.6092 48 28.3103 48C26.1954 48 24.4942 47.4943 23.2069 46.4828C21.8276 44.3678 21.1379 41.1494 21.1379 36.8276C21.1379 34.4368 21.5977 32.092 22.5172 29.7931C23.5287 27.4023 24.7241 25.4253 26.1034 23.8621C28.0345 21.6552 30.0575 19.8161 32.1724 18.3448C34.2873 16.7816 35.6666 16 36.3103 16ZM15.8965 16C16.5402 16 17.4598 16.4138 18.6552 17.2414C19.8506 18.069 20.5862 18.8506 20.8621 19.5862C17.7356 21.4253 15.3448 23.6322 13.6896 26.2069C12.0345 28.6897 11.2069 30.6207 11.2069 32C11.2069 33.1034 11.6666 34.2069 12.5862 35.3103C13.5977 36.4138 14.5632 37.5172 15.4827 38.6207C16.4942 39.7241 17 40.8276 17 41.931C17 43.5862 16.0345 45.0115 14.1034 46.2069C12.2644 47.4023 10.1954 48 7.89653 48C5.78159 48 4.08044 47.4943 2.79309 46.4828C1.41378 44.3678 0.724121 41.1494 0.724121 36.8276C0.724121 34.4368 1.18389 32.092 2.10343 29.7931C3.11493 27.4023 4.31033 25.4253 5.68964 23.8621C7.62067 21.6552 9.64366 19.8161 11.7586 18.3448C13.8735 16.7816 15.2529 16 15.8965 16Z" fill="#A12015"/>
</svg>
