<svg width="16" height="18" viewBox="0 0 16 18" fill="none" xmlns="http://www.w3.org/2000/svg">
<path d="M15.7747 5.88293C14.8282 1.82634 11.1955 0 8.00452 0C8.00452 0 8.00452 0 7.99551 0C4.81351 0 1.17181 1.81756 0.225333 5.87415C-0.829316 10.4049 2.01914 14.242 4.59717 16.6566C5.55266 17.5522 6.7786 18 8.00452 18C9.23044 18 10.4564 17.5522 11.4028 16.6566C13.9809 14.242 16.8293 10.4137 15.7747 5.88293ZM8.00452 10.282C6.43607 10.282 5.16506 9.0439 5.16506 7.5161C5.16506 5.98829 6.43607 4.75024 8.00452 4.75024C9.57297 4.75024 10.844 5.98829 10.844 7.5161C10.844 9.0439 9.57297 10.282 8.00452 10.282Z" fill="#FF8000"/>
</svg>
