<svg width="17" height="17" viewBox="0 0 17 17" fill="none" xmlns="http://www.w3.org/2000/svg">
<path d="M7.60979 10.8891L6.0542 12.4447C5.72626 12.7727 5.20493 12.7727 4.86858 12.4531C4.77609 12.3607 4.68359 12.2766 4.5911 12.1841C3.72501 11.3096 2.94301 10.393 2.2451 9.43446C1.55559 8.47588 1.00062 7.5173 0.597011 6.56712C0.201807 5.60854 0 4.692 0 3.81751C0 3.24572 0.100903 2.69916 0.30271 2.19465C0.504516 1.68172 0.824044 1.21084 1.2697 0.790409C1.80785 0.260667 2.39645 0 3.01869 0C3.25413 0 3.48957 0.0504517 3.69979 0.151355C3.91841 0.252258 4.11181 0.403613 4.26316 0.622237L6.21396 3.37185C6.36532 3.58207 6.47463 3.77547 6.55031 3.96045C6.62598 4.13704 6.66803 4.31362 6.66803 4.47338C6.66803 4.67519 6.60917 4.87699 6.49145 5.07039C6.38213 5.26379 6.22237 5.4656 6.02056 5.6674L5.38151 6.33168C5.28901 6.42418 5.24697 6.53349 5.24697 6.66803C5.24697 6.7353 5.25538 6.79416 5.2722 6.86142C5.29742 6.92869 5.32265 6.97914 5.33947 7.0296C5.49082 7.30708 5.75149 7.66865 6.12147 8.1059C6.49985 8.54315 6.90347 8.9888 7.34071 9.43446C7.4248 9.51855 7.5173 9.60263 7.60138 9.68672C7.93773 10.0147 7.94614 10.5528 7.60979 10.8891Z" fill="#FF8000"/>
<path d="M16.7917 13.7305C16.7917 13.966 16.7496 14.2098 16.6655 14.4453C16.6403 14.5125 16.6151 14.5798 16.5814 14.6471C16.4385 14.9498 16.2535 15.2357 16.0097 15.5047C15.5976 15.9588 15.1436 16.2867 14.6306 16.497C14.6222 16.497 14.6138 16.5054 14.6054 16.5054C14.1093 16.7072 13.5712 16.8165 12.991 16.8165C12.1333 16.8165 11.2167 16.6147 10.2498 16.2027C9.28276 15.7906 8.31577 15.2357 7.35719 14.5378C7.02926 14.2939 6.70133 14.0501 6.39021 13.7894L9.13982 11.0398C9.37526 11.2163 9.58547 11.3509 9.76205 11.4434C9.8041 11.4602 9.85455 11.4854 9.91341 11.5107C9.98068 11.5359 10.0479 11.5443 10.1236 11.5443C10.2666 11.5443 10.3759 11.4938 10.4684 11.4013L11.1074 10.7707C11.3176 10.5605 11.5195 10.4007 11.7129 10.2998C11.9062 10.1821 12.0996 10.1232 12.3099 10.1232C12.4696 10.1232 12.6378 10.1569 12.8228 10.2325C13.0078 10.3082 13.2012 10.4175 13.4114 10.5605L16.1946 12.5365C16.4133 12.6879 16.5646 12.8644 16.6571 13.0747C16.7412 13.2849 16.7917 13.4951 16.7917 13.7305Z" fill="#FF8000"/>
</svg>
