<svg width="25" height="24" viewBox="0 0 25 24" fill="none" xmlns="http://www.w3.org/2000/svg">
<path d="M17.7004 0H7.64436C3.27636 0 0.672363 2.604 0.672363 6.972V17.016C0.672363 21.396 3.27636 24 7.64436 24H17.6884C22.0564 24 24.6604 21.396 24.6604 17.028V6.972C24.6724 2.604 22.0684 0 17.7004 0ZM12.6724 16.656C10.1044 16.656 8.01636 14.568 8.01636 12C8.01636 9.432 10.1044 7.344 12.6724 7.344C15.2404 7.344 17.3284 9.432 17.3284 12C17.3284 14.568 15.2404 16.656 12.6724 16.656ZM19.7764 5.856C19.7164 6 19.6324 6.132 19.5244 6.252C19.4044 6.36 19.2724 6.444 19.1284 6.504C18.9844 6.564 18.8284 6.6 18.6724 6.6C18.3484 6.6 18.0484 6.48 17.8204 6.252C17.7124 6.132 17.6284 6 17.5684 5.856C17.5084 5.712 17.4724 5.556 17.4724 5.4C17.4724 5.244 17.5084 5.088 17.5684 4.944C17.6284 4.788 17.7124 4.668 17.8204 4.548C18.0964 4.272 18.5164 4.14 18.9004 4.224C18.9844 4.236 19.0564 4.26 19.1284 4.296C19.2004 4.32 19.2724 4.356 19.3444 4.404C19.4044 4.44 19.4644 4.5 19.5244 4.548C19.6324 4.668 19.7164 4.788 19.7764 4.944C19.8364 5.088 19.8724 5.244 19.8724 5.4C19.8724 5.556 19.8364 5.712 19.7764 5.856Z" fill="white"/>
</svg>
