<svg width="622" height="622" viewBox="0 0 622 622" fill="none" xmlns="http://www.w3.org/2000/svg">
<path d="M310.503 621.006C139.221 621.006 0 481.785 0 310.503C0 139.221 139.221 0 310.503 0C481.785 0 621.006 139.221 621.006 310.503C621.006 481.785 481.785 621.006 310.503 621.006ZM310.503 43.326C163.194 43.326 43.326 163.194 43.326 310.503C43.326 457.811 163.194 577.68 310.503 577.68C457.811 577.68 577.68 457.811 577.68 310.503C577.68 163.194 457.811 43.326 310.503 43.326Z" fill="white"/>
<path d="M228.743 413.91C223.255 413.91 217.767 411.888 213.435 407.556C205.058 399.179 205.058 385.315 213.435 376.939L376.919 213.456C385.295 205.079 399.159 205.079 407.536 213.456C415.912 221.832 415.912 235.696 407.536 244.073L244.051 407.556C240.008 411.888 234.231 413.91 228.743 413.91Z" fill="white"/>
<path d="M392.227 413.91C386.739 413.91 381.251 411.888 376.919 407.556L213.435 244.073C205.058 235.696 205.058 221.832 213.435 213.456C221.811 205.079 235.675 205.079 244.051 213.456L407.536 376.939C415.912 385.315 415.912 399.179 407.536 407.556C403.203 411.888 397.715 413.91 392.227 413.91Z" fill="white"/>
</svg>
