<svg width="25" height="24" viewBox="0 0 25 24" fill="none" xmlns="http://www.w3.org/2000/svg">
<path d="M24.4224 17.028C24.4224 21.396 21.8184 24 17.4504 24H16.0224C15.3624 24 14.8224 23.46 14.8224 22.8V15.876C14.8224 15.552 15.0864 15.276 15.4104 15.276L17.5224 15.24C17.6904 15.228 17.8344 15.108 17.8704 14.94L18.2904 12.648C18.3264 12.432 18.1584 12.228 17.9304 12.228L15.3744 12.264C15.0384 12.264 14.7744 12 14.7624 11.676L14.7144 8.736C14.7144 8.544 14.8704 8.37601 15.0744 8.37601L17.9544 8.328C18.1584 8.328 18.3144 8.17201 18.3144 7.96801L18.2664 5.08799C18.2664 4.88399 18.1104 4.728 17.9064 4.728L14.6664 4.77601C12.6744 4.81201 11.0904 6.444 11.1264 8.436L11.1864 11.736C11.1984 12.072 10.9344 12.336 10.5984 12.348L9.15836 12.372C8.95436 12.372 8.79838 12.528 8.79838 12.732L8.83438 15.012C8.83438 15.216 8.99036 15.372 9.19436 15.372L10.6344 15.348C10.9704 15.348 11.2344 15.612 11.2464 15.936L11.3544 22.776C11.3664 23.448 10.8264 24 10.1544 24H7.39436C3.02636 24 0.422363 21.396 0.422363 17.016V6.972C0.422363 2.604 3.02636 0 7.39436 0H17.4504C21.8184 0 24.4224 2.604 24.4224 6.972V17.028Z" fill="white"/>
</svg>
