<svg width="30" height="24" viewBox="0 0 30 24" fill="none" xmlns="http://www.w3.org/2000/svg">
<path d="M9.71247 23.9997C11.9801 24.0139 14.2281 23.5778 16.3259 22.7166C18.4237 21.8553 20.3296 20.5862 21.9332 18.9826C23.5367 17.3791 24.8059 15.4732 25.6671 13.3754C26.5283 11.2776 26.9644 9.02962 26.9502 6.76195C26.9502 6.49345 26.9502 6.23838 26.9502 5.96988C28.1257 5.10865 29.1431 4.05033 29.9574 2.84185C28.8505 3.32595 27.6793 3.64701 26.4803 3.79503C27.7515 3.03756 28.7054 1.84527 29.1653 0.438774C27.9806 1.14955 26.6814 1.64922 25.3258 1.91552C24.4128 0.942704 23.2046 0.297886 21.8882 0.0808445C20.5719 -0.136197 19.2206 0.0866355 18.0437 0.714865C16.8667 1.34309 15.9296 2.3417 15.3773 3.55616C14.825 4.77063 14.6884 6.13326 14.9885 7.4332C12.5801 7.31499 10.2236 6.69083 8.07241 5.60137C5.92125 4.51191 4.02367 2.98158 2.50324 1.11002C1.73657 2.44068 1.50419 4.01295 1.85315 5.50849C2.20211 7.00403 3.10633 8.31109 4.38274 9.16503C3.44113 9.12871 2.5213 8.87116 1.69774 8.41323V8.48035C1.68937 9.87096 2.15784 11.2224 3.02507 12.3095C3.89231 13.3966 5.10591 14.1537 6.46362 14.4545C5.58782 14.69 4.67043 14.7267 3.77861 14.5619C4.17168 15.7478 4.922 16.7831 5.92668 17.5258C6.93136 18.2685 8.14119 18.6822 9.39027 18.7102C7.25463 20.4293 4.60035 21.3756 1.85884 21.3952C1.37816 21.3813 0.898612 21.341 0.422363 21.2744C3.19725 23.0423 6.42227 23.9744 9.71247 23.9594" fill="white"/>
</svg>
