<?xml version="1.0" encoding="UTF-8" standalone="no"?>
<svg
   width="2426.4761"
   height="800.15668"
   viewBox="0 0 187.08713 61.694"
   version="1.1"
   id="svg16"
   sodipodi:docname="logo_pavilion.svg"
   inkscape:version="1.2.2 (732a01da63, 2022-12-09)"
   xmlns:inkscape="http://www.inkscape.org/namespaces/inkscape"
   xmlns:sodipodi="http://sodipodi.sourceforge.net/DTD/sodipodi-0.dtd"
   xmlns="http://www.w3.org/2000/svg"
   xmlns:svg="http://www.w3.org/2000/svg">
  <defs
     id="defs20" />
  <sodipodi:namedview
     id="namedview18"
     pagecolor="#ffffff"
     bordercolor="#000000"
     borderopacity="0.25"
     inkscape:showpageshadow="2"
     inkscape:pageopacity="0.0"
     inkscape:pagecheckerboard="0"
     inkscape:deskcolor="#d1d1d1"
     showgrid="false"
     inkscape:zoom="0.0525"
     inkscape:cx="-1228.5714"
     inkscape:cy="2952.3809"
     inkscape:window-width="1366"
     inkscape:window-height="705"
     inkscape:window-x="-8"
     inkscape:window-y="-8"
     inkscape:window-maximized="1"
     inkscape:current-layer="svg16" />
  <path
     d="m 49.397,4.877 h -4.028 l -0.424,2.12 h 2.756 l -1.06,4.24 h -2.756 l -1.06,5.088 -4.876,0.212 3.603,-16.112 h 7.845 z"
     id="path4"
     style="clip-rule:evenodd;fill-rule:evenodd;fill:#ffffff" />
  <path
     d="m 63.813,10.388 c -0.848,1.908 -1.908,3.393 -3.604,4.664 -1.484,1.061 -3.18,1.696 -5.088,1.696 -0.636,0 -1.06,0 -1.696,-0.212 -1.484,-0.212 -2.756,-1.06 -3.604,-2.544 C 48.973,12.296 48.761,10.599 49.397,8.48 49.821,5.936 51.093,4.028 52.789,2.544 54.697,0.848 56.605,0 58.726,0 c 0.636,0 1.06,0.212 1.484,0.212 1.484,0.212 2.544,1.06 3.392,2.12 0.848,1.06 1.272,2.544 1.272,4.24 0,0.424 -0.212,1.272 -0.424,1.908 -0.001,0.637 -0.213,1.273 -0.637,1.908 z M 59.997,7.633 c 0.212,-0.848 0,-1.696 -0.636,-2.12 -0.424,-0.636 -1.06,-0.848 -1.696,-0.848 -1.272,0 -2.12,0.636 -2.968,1.696 -0.424,0.636 -0.636,1.272 -0.848,2.12 -0.212,1.06 -0.212,1.908 0.212,2.544 0.424,0.636 1.06,1.06 1.908,1.06 1.271,0 2.12,-0.636 2.968,-1.696 0.424,-0.424 0.848,-1.271 0.848,-2.12 0.212,0 0.212,-0.212 0.212,-0.212 z"
     fill="#ffffff"
     id="path6"
     style="clip-rule:evenodd;fill-rule:evenodd;fill:#ffffff" />
  <path
     d="m 63.813,10.388 c -0.848,1.908 -1.908,3.393 -3.604,4.664 -1.484,1.061 -3.18,1.696 -5.088,1.696 -0.636,0 -1.06,0 -1.696,-0.212 -1.484,-0.212 -2.756,-1.06 -3.604,-2.544 C 48.973,12.296 48.761,10.599 49.397,8.48 49.821,5.936 51.093,4.028 52.789,2.544 54.697,0.848 56.605,0 58.726,0 c 0.636,0 1.06,0.212 1.484,0.212 1.484,0.212 2.544,1.06 3.392,2.12 0.848,1.06 1.272,2.544 1.272,4.24 0,0.424 -0.212,1.272 -0.424,1.908 -0.001,0.637 -0.213,1.273 -0.637,1.908 z"
     id="path8"
     style="clip-rule:evenodd;fill-rule:evenodd;fill:#ffffff" />
  <path
     d="m 59.997,7.633 c 0.212,-0.848 0,-1.696 -0.636,-2.12 -0.424,-0.636 -1.06,-0.848 -1.696,-0.848 -1.272,0 -2.12,0.636 -2.968,1.696 -0.424,0.636 -0.636,1.272 -0.848,2.12 -0.212,1.06 -0.212,1.908 0.212,2.544 0.424,0.636 1.06,1.06 1.908,1.06 1.271,0 2.12,-0.636 2.968,-1.696 0.424,-0.424 0.848,-1.271 0.848,-2.12 0.212,0 0.212,-0.212 0.212,-0.212 z"
     fill="#ffffff"
     id="path10"
     style="clip-rule:evenodd;fill-rule:evenodd;fill:#ffffff" />
  <path
     d="m 80.35,10.388 c -0.848,1.908 -1.908,3.393 -3.604,4.664 -1.484,1.061 -3.18,1.696 -5.088,1.696 -0.636,0 -1.06,0 -1.696,-0.212 -1.484,-0.212 -2.756,-1.06 -3.604,-2.544 C 65.51,12.296 65.298,10.599 65.934,8.48 66.358,5.936 67.63,4.028 69.326,2.544 71.234,0.848 73.142,0 75.262,0 c 0.636,0 1.06,0.212 1.484,0.212 1.484,0.212 2.544,1.06 3.392,2.12 0.849,1.06 1.272,2.544 1.272,4.24 0,0.424 -0.212,1.272 -0.424,1.908 0,0.637 -0.213,1.273 -0.636,1.908 z M 76.534,7.633 c 0.212,-0.848 0,-1.696 -0.636,-2.12 -0.424,-0.636 -1.06,-0.848 -1.696,-0.848 -1.272,0 -2.12,0.636 -2.968,1.696 -0.424,0.636 -0.636,1.272 -0.848,2.12 -0.212,1.06 -0.212,1.908 0.212,2.544 0.424,0.636 1.06,1.06 1.908,1.06 1.06,0 2.12,-0.636 2.968,-1.696 0.424,-0.424 0.848,-1.271 0.848,-2.12 0.212,0 0.212,-0.212 0.212,-0.212 z M 95.401,7.209 v 0.636 c 0,0.212 -0.211,0.424 -0.211,0.636 -0.424,2.332 -1.697,4.24 -3.605,5.936 -0.848,0.636 -1.696,1.06 -2.544,1.484 -0.848,0.212 -1.696,0.424 -2.756,0.424 h -5.512 l 3.604,-15.9 h 5.725 c 1.483,0.212 2.544,0.636 3.392,1.272 0.849,0.636 1.484,1.484 1.697,2.968 0.21,0.636 0.423,1.696 0.21,2.544 z m -4.875,0 C 90.314,5.937 89.678,5.301 88.83,5.089 h -0.848 l -1.484,6.784 h 0.848 c 0.424,-0.212 1.06,-0.424 1.272,-0.636 0.424,-0.212 0.848,-0.637 1.272,-1.272 0.212,-0.424 0.424,-1.06 0.636,-1.484 z m -51.73,20.776 v 1.06 c -0.212,0.424 -0.212,0.848 -0.424,1.484 -1.06,4.664 -3.392,8.691 -6.784,12.084 -1.908,1.695 -3.816,2.756 -5.724,3.604 -1.908,0.637 -4.24,1.061 -6.996,1.061 h -1.06 L 16.96,47.065 13.78,60.846 0,61.694 10.812,13.781 h 16.96 c 0.636,0 1.06,0 1.272,0.212 0.636,0 1.06,0 1.908,0.212 3.18,0.848 5.3,2.332 6.572,4.664 1.272,2.12 1.696,5.088 1.272,9.116 z M 26.5,31.59 c 0,-0.213 0.212,-0.637 0.212,-1.061 0.212,-0.212 0.212,-0.637 0.212,-1.061 0,-1.272 -0.212,-2.332 -0.636,-2.756 -0.424,-0.636 -1.06,-1.06 -2.333,-1.272 h -2.12 l -2.332,10.39 h 1.484 c 2.757,0 4.453,-1.484 5.513,-4.24 z m 85.649,-19.081 c -1.695,0.848 1.484,-11.872 1.697,-11.872 0,0 17.809,0 19.08,1.272 0.424,0.424 0.213,2.968 0,4.24 9.965,-2.332 20.354,1.908 19.504,1.908 -6.148,-0.636 -11.66,1.908 -11.66,1.908 -6.148,1.696 -6.572,1.908 -3.816,-1.484 1.484,-1.908 -17.172,-0.637 -24.805,4.028 z M 61.057,47.914 h -9.328 l 0.636,-2.969 -0.636,0.637 c -2.544,1.906 -4.876,2.756 -7.208,2.756 -0.636,0 -1.272,0 -1.908,-0.213 -3.604,-0.848 -5.3,-2.967 -5.088,-6.148 0,-0.848 0,-1.695 0.212,-2.332 0.636,-2.967 2.544,-5.088 5.512,-6.572 1.484,-0.635 2.756,-1.059 4.24,-1.059 0.848,0 1.696,0.211 2.544,0.424 0.848,0.211 1.908,0.635 2.756,1.271 l 0.636,0.637 0.424,-1.484 v -0.213 c 0.212,-0.424 0,-0.848 -0.212,-1.271 -0.424,-1.273 -1.908,-1.909 -4.664,-1.909 l -1.06,0.212 h -0.848 c -1.061,0.211 -2.332,0.211 -3.604,0.636 l -1.06,0.212 2.968,-6.361 2.332,-0.212 c 2.12,-0.424 4.24,-0.636 6.36,-0.636 4.24,0 7.208,0.848 8.904,2.544 1.696,1.696 2.12,4.028 1.484,6.997 z m -8.904,-6.572 c 0.212,-0.213 0.424,-0.424 0.424,-0.637 0.211,-0.211 0.211,-0.637 0.424,-0.848 V 39.22 c 0,-0.211 -0.212,-0.424 -0.212,-0.637 -0.424,-0.848 -1.271,-1.271 -2.332,-1.271 -0.211,0 -0.424,0.213 -0.636,0.213 -0.848,0 -1.696,0.424 -2.12,1.059 -0.424,0.426 -0.636,0.85 -0.848,1.273 0,0.637 0,1.061 0.212,1.484 0.424,0.635 1.271,1.059 2.332,1.059 h 0.636 c 0.848,-0.21 1.484,-0.634 2.12,-1.058 z M 92.434,24.805 80.561,47.914 H 69.113 l -1.696,-23.109 9.329,-1.06 -0.212,16.96 7.208,-16.96 z m 6.147,22.684 -9.963,0.849 5.3,-23.745 9.964,-0.636 z m 7.422,-30.104 -6.996,5.512 -4.453,-5.512 6.996,-5.3 z m 6.359,30.316 -9.965,0.637 7.42,-32.861 9.965,-0.636 z m 13.782,-0.212 -9.965,0.849 5.3,-23.745 9.963,-0.636 z m 7.419,-30.104 -6.785,5.512 -4.664,-5.512 6.996,-5.3 z m 25.016,18.869 c -0.637,2.967 -2.332,5.723 -4.664,8.055 -2.332,2.121 -5.088,3.605 -8.48,4.029 -1.059,0.211 -2.119,0.424 -2.967,0.424 -3.816,0 -6.785,-1.273 -8.693,-3.604 -1.908,-2.545 -2.543,-5.514 -1.695,-8.904 1.061,-4.664 3.816,-8.057 8.268,-10.601 2.332,-1.272 4.877,-2.12 7.844,-2.12 3.816,0 6.785,1.272 8.693,3.604 1.908,2.332 2.542,5.301 1.694,9.117 z m -9.541,0.848 c 0,-0.213 0.213,-0.637 0.213,-0.848 0.213,-1.273 0.213,-2.121 -0.213,-2.758 -0.424,-0.848 -1.059,-1.271 -2.119,-1.271 -0.211,-0.211 -0.424,-0.211 -0.637,-0.211 -0.424,0 -0.635,0 -0.635,0.211 -1.271,0 -2.121,0.424 -2.756,1.271 -0.848,0.637 -1.273,1.484 -1.484,2.758 -0.213,1.059 -0.213,1.908 0.211,2.543 0.426,0.848 1.061,1.271 2.121,1.484 h 1.485 c 1.908,-0.423 3.179,-1.484 3.814,-3.179 z m 34.133,10.599 -9.963,0.637 2.756,-12.508 0.211,-1.273 0.213,-0.424 v -0.637 c 0.213,-1.271 -0.213,-1.695 -1.271,-1.695 h -0.637 c -1.271,0.213 -2.119,1.061 -2.332,2.756 l -0.424,1.697 -2.545,11.023 -9.963,1.061 5.299,-23.745 9.328,-0.636 -0.848,3.393 0.637,-0.636 c 1.908,-1.908 4.027,-2.968 6.572,-3.18 2.967,0 4.875,0.848 5.936,2.12 1.061,1.272 1.271,3.604 0.424,6.785 z"
     id="path12"
     style="clip-rule:evenodd;fill-rule:evenodd;fill:#ffffff" />
</svg>
