<?xml version="1.0" encoding="UTF-8" standalone="no"?>
<!-- Created with Inkscape (http://www.inkscape.org/) -->

<svg
   version="1.1"
   id="svg2"
   width="554.39569"
   height="157.5174"
   viewBox="0 0 554.39569 157.5174"
   sodipodi:docname="logo.svg"
   inkscape:version="1.2.2 (732a01da63, 2022-12-09)"
   xmlns:inkscape="http://www.inkscape.org/namespaces/inkscape"
   xmlns:sodipodi="http://sodipodi.sourceforge.net/DTD/sodipodi-0.dtd"
   xmlns="http://www.w3.org/2000/svg"
   xmlns:svg="http://www.w3.org/2000/svg">
  <defs
     id="defs6" />
  <sodipodi:namedview
     id="namedview4"
     pagecolor="#ffffff"
     bordercolor="#000000"
     borderopacity="0.25"
     inkscape:showpageshadow="2"
     inkscape:pageopacity="0.0"
     inkscape:pagecheckerboard="0"
     inkscape:deskcolor="#d1d1d1"
     showgrid="false"
     inkscape:zoom="0.24479167"
     inkscape:cx="-663.82978"
     inkscape:cy="89.872339"
     inkscape:window-width="1366"
     inkscape:window-height="705"
     inkscape:window-x="-8"
     inkscape:window-y="-8"
     inkscape:window-maximized="1"
     inkscape:current-layer="g8" />
  <g
     inkscape:groupmode="layer"
     inkscape:label="Image"
     id="g8"
     transform="translate(-39.008827,-31.012453)">
    <path
       style="fill:#ffffff;fill-opacity:1;stroke-width:1.35403;stop-color:#000000"
       d="m 96.429733,56.629095 c -0.627265,-0.136079 -0.597931,-0.114276 -0.419308,-0.311651 0.09078,-0.100317 0.247674,-0.329397 0.348641,-0.509067 0.176615,-0.314282 0.222584,-0.336169 1.212071,-0.577077 0.675401,-0.164437 1.100364,-0.317923 1.237839,-0.447075 0.400919,-0.376643 0.476056,-1.118838 0.579378,-5.72305 0.05236,-2.333453 0.131559,-4.791025 0.175988,-5.461272 0.210017,-3.168278 0.300617,-6.850103 0.193694,-7.87145 -0.129831,-1.240178 -0.518962,-2.465453 -0.867802,-2.732484 -0.1278,-0.09783 -0.687979,-0.289151 -1.244842,-0.425162 -1.918381,-0.468554 -2.585326,-0.841683 -2.197562,-1.229448 0.123143,-0.123143 0.44339,-0.139575 2.370849,-0.121656 1.225661,0.0114 2.252501,0.03557 2.281871,0.05372 0.0294,0.01815 1.04848,7.7e-4 2.26471,-0.03862 3.12274,-0.101135 3.20126,-0.06812 3.56458,1.498482 0.0791,0.340992 0.26385,0.832726 0.4106,1.092744 0.14674,0.260017 0.35198,0.788341 0.45609,1.174051 0.19996,0.740873 0.36909,1.077924 0.63685,1.269174 0.0908,0.06482 0.28294,0.499732 0.43308,0.980064 0.14846,0.474941 0.37222,1.038084 0.49725,1.251429 0.12503,0.213345 0.331,0.71608 0.45771,1.117189 0.16165,0.511722 0.3362,0.851555 0.5851,1.139132 0.19509,0.225414 0.39893,0.581523 0.45297,0.791354 0.19727,0.766004 0.29418,1.021377 0.53873,1.419602 0.13719,0.223415 0.33734,0.702399 0.44475,1.064406 0.14508,0.488927 0.28478,0.75039 0.54321,1.016684 0.27291,0.281216 0.38102,0.493616 0.50153,0.985397 0.0845,0.344802 0.2717,0.813073 0.41599,1.040604 0.1443,0.227531 0.35974,0.604991 0.47876,0.838801 0.26146,0.513647 0.62608,0.873481 0.81257,0.801918 0.16702,-0.06409 0.52692,-0.627066 0.67334,-1.05327 0.0596,-0.173462 0.21262,-0.465852 0.34006,-0.649755 0.26271,-0.379085 0.47465,-0.920879 0.48052,-1.228363 0.005,-0.274794 0.2326,-0.704843 0.60078,-1.136395 0.16505,-0.193457 0.3863,-0.618918 0.49289,-0.947824 0.10637,-0.32824 0.29707,-0.758043 0.42379,-0.955118 0.12672,-0.197074 0.36096,-0.774231 0.52055,-1.28257 0.22749,-0.72467 0.35021,-0.974792 0.5683,-1.158299 0.2087,-0.175611 0.33485,-0.41883 0.50525,-0.974153 0.1249,-0.407059 0.32867,-0.882281 0.4528,-1.056049 0.12414,-0.173768 0.32393,-0.695262 0.44397,-1.158877 0.16255,-0.627744 0.28719,-0.915803 0.48824,-1.128362 0.35452,-0.374798 0.42801,-0.529535 0.65432,-1.37767 0.10466,-0.392224 0.29114,-0.886016 0.41441,-1.097316 0.12326,-0.211299 0.30569,-0.759683 0.40538,-1.218631 0.0997,-0.458947 0.24143,-0.895381 0.31495,-0.969853 0.14715,-0.149055 -0.0462,-0.14495 4.68601,-0.09946 1.53909,0.0148 3.16408,-0.0019 3.61109,-0.03699 0.73448,-0.05774 0.83432,-0.04644 1.03662,0.117376 0.22201,0.179771 0.22257,0.18398 0.0678,0.508434 -0.18737,0.392912 -0.36572,0.466368 -2.35481,0.969829 -0.44368,0.112299 -1.06606,0.684978 -1.33722,1.23043 l -0.21111,0.42466 v 9.433105 c 0,5.188208 0.0333,9.590896 0.0741,9.78375 0.0907,0.42949 0.85133,1.270352 1.26681,1.400477 0.15618,0.04892 0.64955,0.155317 1.09638,0.23645 0.8684,0.157678 1.08216,0.281652 1.27623,0.740165 0.15803,0.37337 0.15542,0.535301 -0.01,0.598639 -0.0729,0.02798 -1.05797,0.0097 -2.18902,-0.04059 -2.55422,-0.113609 -5.43857,-0.113193 -7.95458,0.0011 -1.17277,0.05329 -2.01146,0.05516 -2.14399,0.0048 l -0.21768,-0.08276 0.24547,-0.500502 c 0.27266,-0.555933 0.32411,-0.581644 1.61208,-0.805615 0.77052,-0.13399 1.04115,-0.287374 1.23764,-0.701435 0.0787,-0.165862 0.25668,-0.463407 0.3955,-0.66121 0.25181,-0.358822 0.25253,-0.36407 0.31194,-2.300425 0.0328,-1.06743 0.064,-4.670282 0.0693,-8.006336 l 0.01,-6.065553 -0.2181,-0.253273 -0.2181,-0.253274 -0.24182,0.225673 c -0.133,0.12412 -0.29641,0.330571 -0.36314,0.45878 -0.0667,0.128209 -0.25768,0.396323 -0.42435,0.595808 -0.22863,0.273652 -0.36466,0.592559 -0.55408,1.298919 -0.20955,0.781457 -0.3085,0.998552 -0.59863,1.313301 -0.25211,0.273511 -0.40138,0.55934 -0.54343,1.040639 -0.10772,0.364956 -0.31122,0.839314 -0.45222,1.054132 -0.14101,0.214817 -0.32175,0.678027 -0.40166,1.029355 -0.16957,0.745518 -0.20532,0.820992 -0.62938,1.328555 -0.18804,0.225075 -0.3778,0.593051 -0.46067,0.893308 -0.0775,0.280817 -0.2972,0.835545 -0.48823,1.232729 -0.19103,0.397183 -0.43848,1.03385 -0.54989,1.414816 -0.15033,0.514029 -0.27992,0.765626 -0.50251,0.975576 -0.21963,0.207162 -0.34984,0.456752 -0.48631,0.932177 -0.20139,0.70163 -0.26928,0.863182 -0.54098,1.287395 -0.0976,0.15238 -0.25592,0.591065 -0.35183,0.974855 -0.14001,0.560261 -0.24606,0.775563 -0.53805,1.092334 -0.26322,0.285565 -0.41822,0.574144 -0.56119,1.044826 -0.1604,0.528114 -0.24804,0.677868 -0.46643,0.797065 -0.14791,0.08073 -0.40041,0.232844 -0.56112,0.33804 l -0.2922,0.191264 -0.56021,-0.84261 c -0.3355,-0.504625 -0.6528,-1.117998 -0.79104,-1.529165 -0.14501,-0.431272 -0.35424,-0.829137 -0.56271,-1.070008 -0.26657,-0.307989 -0.36266,-0.52669 -0.48829,-1.111319 -0.10089,-0.469506 -0.24674,-0.852565 -0.41089,-1.079164 -0.13996,-0.193213 -0.3636,-0.678972 -0.49698,-1.079464 -0.15984,-0.479966 -0.33449,-0.816297 -0.51237,-0.986719 -0.18405,-0.176333 -0.32789,-0.460777 -0.45235,-0.894494 -0.27932,-0.97344 -0.42864,-1.344592 -0.67563,-1.679378 -0.12454,-0.168799 -0.30625,-0.571774 -0.40381,-0.895501 -0.10096,-0.335021 -0.31463,-0.760354 -0.49598,-0.987281 -0.1798,-0.224988 -0.37799,-0.618268 -0.4549,-0.90269 -0.075,-0.277201 -0.17677,-0.654501 -0.22623,-0.838443 -0.0495,-0.183943 -0.19264,-0.456512 -0.31819,-0.605709 -0.12554,-0.149198 -0.33334,-0.583834 -0.46179,-0.965859 -0.1485,-0.441688 -0.3482,-0.821511 -0.54846,-1.043173 -0.24565,-0.271905 -0.35201,-0.507855 -0.48352,-1.072656 -0.16651,-0.715103 -0.4412,-1.373968 -0.6185,-1.483545 -0.19091,-0.117994 -0.58832,0.181732 -0.71838,0.541805 -0.27331,0.756684 -0.1859,14.526854 0.10082,15.88243 0.20553,0.971702 0.46619,1.170424 1.90678,1.453698 0.70882,0.13938 0.80865,0.183785 0.92678,0.412232 0.0728,0.140814 0.26373,0.323311 0.42424,0.405552 0.31853,0.163195 0.44065,0.30043 0.36963,0.415353 -0.0252,0.04068 -1.49498,0.05033 -3.2663,0.02145 -1.77132,-0.02888 -3.799459,-0.01961 -4.506982,0.02061 -0.707524,0.04022 -1.316839,0.06652 -1.354035,0.05846 z"
       id="path451" />
    <path
       style="fill:#ffffff;fill-opacity:1;stroke-width:3.82979;stop-color:#000000"
       d="m 151.14894,56.288048 c 0,-0.425566 0.7012,-1.139112 1.1194,-1.139112 0.85183,0 1.68823,-1.420974 4.88423,-8.297872 0.45683,-0.982979 1.30354,-2.790038 1.88157,-4.015687 0.57803,-1.225649 1.05097,-2.351823 1.05097,-2.502608 0,-0.150786 0.22537,-0.699046 0.50082,-1.218356 0.27545,-0.51931 0.7475,-1.518668 1.049,-2.220796 2.26482,-5.274331 2.59943,-5.87234 3.28578,-5.87234 0.32896,0 0.6968,0.201063 0.81742,0.446808 0.12062,0.245745 0.33504,0.647872 0.47649,0.893617 0.34697,0.602818 0.61524,1.210491 1.26808,2.872341 0.53897,1.371978 1.27723,3.019193 1.96298,4.379819 0.18786,0.37273 0.34155,0.835464 0.34155,1.028296 0,0.192833 0.20045,0.63468 0.44544,0.981883 0.48661,0.689648 1.59404,3.270878 1.59593,3.719871 6.6e-4,0.154046 0.23097,0.54503 0.51183,0.868854 0.28085,0.323824 0.51063,0.697444 0.51063,0.830267 0,0.132823 0.16517,0.603541 0.36703,1.04604 0.20187,0.442499 0.54424,1.206672 0.76083,1.698161 0.21658,0.491489 0.50708,1.065958 0.64554,1.276596 0.13846,0.210638 0.47621,0.9 0.75056,1.531915 0.58384,1.344758 1.65594,2.419521 2.64626,2.652826 0.38617,0.09098 0.70212,0.335565 0.70212,0.543527 0,0.207963 1.9e-4,0.464285 5.1e-4,0.569604 2.3e-4,0.105319 -2.58487,0.211001 -5.74468,0.234848 -3.1599,0.02385 -5.74519,-0.05293 -5.74519,-0.170607 0,-0.511599 0.33865,-1.021688 0.6783,-1.021688 0.67671,0 1.87489,-0.773776 1.87489,-1.210786 0,-0.565205 -0.76781,-2.640477 -1.15791,-3.129639 -0.16798,-0.210638 -0.3815,-0.703 -0.4745,-1.094137 -0.24444,-1.028098 -0.991,-1.204228 -5.08633,-1.199972 -4.02751,0.0042 -4.72537,0.196212 -5.08964,1.400492 -0.12743,0.421276 -0.45246,1.304278 -0.72229,1.962225 -0.26983,0.657947 -0.4906,1.530944 -0.4906,1.939994 0,0.630606 0.15533,0.804744 1.02127,1.144895 0.70468,0.276806 1.02128,0.555351 1.02128,0.898525 0,0.470569 -0.20627,0.497666 -3.82979,0.503115 -3.00288,0.0045 -3.82978,-0.06694 -3.82978,-0.330919 z m 15.30273,-9.549094 c 0.2639,-0.166989 0.29184,-0.326783 0.0998,-0.570559 -0.14674,-0.186234 -0.33658,-0.7072 -0.42187,-1.157701 -0.0853,-0.450502 -0.55209,-1.656885 -1.03735,-2.680852 -0.48526,-1.023966 -0.96139,-2.1788 -1.05808,-2.566297 -0.0967,-0.387497 -0.26639,-0.760528 -0.37711,-0.828959 -0.26384,-0.163062 -1.78467,1.573581 -1.78467,2.037924 0,0.197449 -0.45957,1.335374 -1.02128,2.528722 -0.98795,2.098922 -1.20724,2.9511 -0.85106,3.307279 0.25815,0.25815 6.03216,0.195899 6.45167,-0.06956 z"
       id="path453" />
    <path
       style="fill:#ffffff;fill-opacity:1;stroke-width:3.82979;stop-color:#000000"
       d="m 199.40426,56.365806 c 0,-0.447001 0.7006,-0.926152 1.60126,-1.095116 0.49977,-0.09376 1.17692,-0.455855 1.50477,-0.804658 l 0.59609,-0.634187 0.0799,-9.750594 c 0.0502,-6.123579 -0.0156,-10.001933 -0.17697,-10.426278 -0.20979,-0.551782 -0.51884,-0.734307 -1.68541,-0.995373 -1.69019,-0.378248 -2.43258,-0.833615 -2.02848,-1.244231 0.18295,-0.185906 1.78127,-0.255327 4.80451,-0.208678 l 4.53035,0.06991 0.59624,1.148936 c 0.88367,1.702783 1.66708,3.468233 1.66708,3.756847 0,0.139758 0.45907,1.161217 1.02017,2.269907 0.56109,1.108689 1.02067,2.147614 1.02127,2.308721 6.2e-4,0.161107 0.39588,1.080256 0.87837,2.042553 0.48249,0.962297 1.2413,2.525163 1.68625,3.473036 0.70303,1.497655 0.89863,1.723404 1.4932,1.723404 0.59314,0 0.77894,-0.212374 1.39604,-1.595745 0.39152,-0.877659 1.16093,-2.514893 1.7098,-3.638298 0.54888,-1.123404 1.06886,-2.353797 1.15552,-2.734208 0.0867,-0.38041 0.31863,-0.825329 0.51549,-0.988709 0.19686,-0.16338 0.35793,-0.428305 0.35793,-0.588722 0,-0.160417 0.22979,-0.7204 0.51064,-1.244408 0.28085,-0.524007 0.51064,-1.131458 0.51064,-1.349891 0,-0.218432 0.21902,-0.82204 0.48671,-1.341351 0.2677,-0.51931 0.73533,-1.489945 1.03919,-2.156966 l 0.55247,-1.212766 4.38635,0.0039 c 2.41249,0.0022 4.53681,0.09934 4.72072,0.215973 0.46237,0.293232 -0.68994,1.025664 -2.2089,1.404014 -0.90638,0.225765 -1.20784,0.434083 -1.34483,0.929295 -0.31891,1.152927 -0.25836,19.823044 0.0666,20.53627 0.29841,0.654942 0.46018,0.741561 1.9421,1.039889 0.67761,0.136412 1.3383,0.732357 1.3383,1.207153 0,0.05141 -2.87234,0.09817 -6.38298,0.103897 -3.51064,0.0057 -6.38298,-0.06842 -6.38298,-0.164782 0,-0.405513 0.97761,-1.007915 2.01335,-1.240632 0.61171,-0.137441 1.24193,-0.379473 1.40049,-0.537849 0.19856,-0.198335 0.31129,-2.767726 0.36218,-8.25552 0.0607,-6.545776 0.01,-8.055556 -0.28667,-8.460668 -0.33515,-0.458333 -0.42708,-0.350219 -1.30375,1.533186 -0.51875,1.114459 -1.10783,2.331251 -1.30907,2.703981 -0.20124,0.372731 -0.36589,0.814183 -0.36589,0.981006 0,0.166822 -0.22979,0.59544 -0.51064,0.952485 -0.28085,0.357044 -0.51064,0.81076 -0.51064,1.008257 0,0.197497 -0.45957,1.296693 -1.02127,2.442658 -0.5617,1.145964 -1.02128,2.16847 -1.02128,2.272236 0,0.103765 -0.44586,1.14333 -0.99081,2.310144 -0.54494,1.166814 -1.06519,2.351267 -1.15611,2.632118 -0.0909,0.280852 -0.38222,0.769971 -0.64734,1.086933 -0.75581,0.903594 -1.54435,0.423755 -2.27634,-1.385192 -0.33139,-0.818936 -1.04947,-2.416879 -1.59575,-3.550984 -0.54627,-1.134104 -0.99322,-2.159392 -0.99322,-2.278416 0,-0.119024 -0.47261,-1.201759 -1.05024,-2.406076 -2.19723,-4.581048 -2.74724,-5.782418 -2.914,-6.364934 -0.24403,-0.852415 -1.37906,-2.463033 -1.73575,-2.463033 -0.22171,0 -0.31841,2.032567 -0.37048,7.787234 -0.0823,9.091417 -0.007,9.500651 1.83296,9.970736 1.61693,0.413101 1.68431,0.450839 1.68431,0.943307 0,0.428092 -0.33714,0.463099 -4.59574,0.477162 -2.59777,0.0086 -4.59574,-0.08571 -4.59574,-0.216888 z"
       id="path455" />
    <path
       style="fill:#ffffff;fill-opacity:1;stroke-width:3.82979;stop-color:#000000"
       d="m 254.55319,56.489745 c 0,-0.413986 0.6229,-1.070038 1.27075,-1.338386 0.64428,-0.266869 2.30372,-2.22635 2.30372,-2.720249 0,-0.07647 0.64077,-1.478157 1.42394,-3.11486 2.04523,-4.274223 2.53995,-5.355131 3.17329,-6.933271 0.30996,-0.772341 0.7811,-1.762498 1.04699,-2.200349 0.26589,-0.437852 0.48344,-0.928452 0.48344,-1.090222 0,-0.161771 0.45957,-1.252486 1.02128,-2.423812 0.5617,-1.171327 1.02127,-2.236221 1.02127,-2.366432 0,-0.130211 0.22979,-0.687461 0.51064,-1.238334 0.28085,-0.550873 0.51064,-1.13022 0.51064,-1.287437 0,-0.157218 0.27133,-0.431063 0.60296,-0.608545 0.80582,-0.431259 1.61925,0.06458 1.8418,1.122691 0.0894,0.42531 0.61002,1.709855 1.15681,2.854545 0.5468,1.144689 0.99417,2.239337 0.99417,2.432551 0,0.193214 0.15888,0.578131 0.35307,0.85537 0.19419,0.27724 0.66278,1.250677 1.04132,2.163193 0.37854,0.912517 1.08896,2.520823 1.57872,3.574015 0.48975,1.053191 1.10433,2.374468 1.36573,2.93617 0.2614,0.561702 0.77783,1.710638 1.14764,2.553191 0.36981,0.842554 0.77459,1.704256 0.89953,1.914894 0.12493,0.210638 0.46834,0.86198 0.76314,1.447425 0.62335,1.237972 0.96514,1.559655 2.39564,2.254703 0.57803,0.280851 1.08315,0.685958 1.12249,0.900237 0.0624,0.339937 -0.69213,0.391164 -5.91916,0.40186 -5.98945,0.01225 -5.99062,0.01215 -5.62411,-0.511121 0.20162,-0.287859 0.73972,-0.698872 1.19576,-0.913362 1.04479,-0.491394 1.19825,-1.428251 0.46453,-2.835925 -0.29094,-0.558173 -0.52898,-1.232295 -0.52898,-1.498047 0,-0.265753 -0.29744,-0.836683 -0.66099,-1.268734 l -0.661,-0.785547 h -4.15049 c -3.69669,0 -4.1967,0.05105 -4.57305,0.466913 -0.2324,0.256802 -0.42255,0.621159 -0.42255,0.809683 0,0.188524 -0.15607,0.524158 -0.34683,0.745854 -0.37153,0.431803 -0.85215,1.661705 -1.18885,3.042277 -0.19779,0.810983 -0.16278,0.870537 0.72778,1.238192 0.93782,0.387164 1.82917,1.040525 1.82917,1.340778 0,0.08816 -1.83829,0.164252 -4.0851,0.169085 -2.24681,0.0048 -4.08511,-0.03522 -4.08511,-0.08899 z M 270.0847,46.25285 c 0.0466,-0.329017 -0.31541,-1.420507 -0.80442,-2.425532 -0.48902,-1.005025 -1.01414,-2.294376 -1.16694,-2.865224 -0.1528,-0.570848 -0.5756,-1.317656 -0.93956,-1.659574 -0.64815,-0.608904 -0.66918,-0.611492 -1.02414,-0.126061 -0.19932,0.272584 -0.36276,0.674711 -0.36319,0.893617 -4.4e-4,0.218905 -0.39499,1.180626 -0.87679,2.137157 -0.4818,0.956531 -0.95429,2.105467 -1.04997,2.553191 -0.0957,0.447724 -0.28845,0.956198 -0.42837,1.129942 -0.13992,0.173743 -0.18639,0.49315 -0.10325,0.709793 0.12735,0.331887 0.66442,0.382641 3.41154,0.322401 3.20128,-0.0702 3.26193,-0.08234 3.34509,-0.66971 z"
       id="path457" />
    <path
       style="fill:#ffffff;fill-opacity:1;stroke-width:3.82979;stop-color:#000000"
       d="m 260.08794,184.13526 c -0.2556,-0.28244 -0.42837,-0.89925 -0.42837,-1.52936 0,-1.31361 0.42791,-1.58462 2.50198,-1.58462 1.97275,0 2.73151,-0.55289 2.97352,-2.16674 0.0953,-0.63532 0.32972,-1.45678 0.52099,-1.82545 0.19126,-0.36867 0.42175,-1.25848 0.51218,-1.97736 0.0904,-0.71888 0.31939,-1.82407 0.50878,-2.45599 0.18939,-0.63191 0.41439,-1.56822 0.49999,-2.08068 0.0856,-0.51246 0.31301,-1.25927 0.50535,-1.65957 0.19234,-0.40031 0.43072,-1.41719 0.52972,-2.25975 0.099,-0.84255 0.2871,-1.73257 0.418,-1.97782 0.13089,-0.24525 0.35967,-1.10695 0.50839,-1.91489 0.14873,-0.80795 0.38783,-1.61149 0.53134,-1.78565 0.39051,-0.47392 0.55474,-3.37765 0.25284,-4.47057 -0.35453,-1.28351 -0.0152,-2.40634 1.10425,-3.65444 0.49587,-0.55282 0.9592,-1.29237 1.02961,-1.64343 0.0704,-0.35107 0.30397,-1.21277 0.51902,-1.9149 1.16553,-3.80557 1.62225,-7.24112 1.14472,-8.61096 -0.22239,-0.63794 -0.19466,-1.06894 0.13208,-2.05264 0.22746,-0.68484 0.56746,-1.30421 0.75556,-1.37639 0.52738,-0.20237 1.331,-1.93134 1.53739,-3.30764 0.10224,-0.6818 0.32994,-1.58622 0.506,-2.00983 0.6098,-1.46724 1.19199,-5.81848 0.95924,-7.16939 -0.29904,-1.73571 -0.1706,-2.27805 0.75989,-3.20853 1.11695,-1.11695 1.46987,-1.88144 1.74363,-3.77701 0.13027,-0.90202 0.40399,-2.16585 0.60827,-2.80851 0.7793,-2.45172 1.1165,-4.41491 0.86976,-5.06387 -0.13251,-0.34854 -0.25375,-1.20276 -0.26942,-1.89827 -0.0252,-1.11651 0.0765,-1.37448 0.8684,-2.20352 0.94405,-0.98834 1.97916,-3.54478 1.97916,-4.88798 0,-0.41552 0.25227,-1.362935 0.56059,-2.105367 0.48951,-1.178727 0.55537,-1.772804 0.51944,-4.68553 l -0.0412,-3.335653 0.84742,-0.877113 c 1.07962,-1.117458 1.82286,-2.808054 2.05645,-4.677692 0.10102,-0.808476 0.37006,-1.892594 0.59787,-2.409156 0.31473,-0.713637 0.41828,-1.803794 0.43118,-4.539186 l 0.017,-3.599983 0.92143,-0.869017 c 0.71744,-0.676641 1.04133,-1.296326 1.46306,-2.79928 0.29789,-1.061646 0.54667,-2.267617 0.55284,-2.679937 0.006,-0.412318 0.18111,-1.209246 0.38877,-1.770948 0.68001,-1.839317 0.86829,-3.333451 0.61568,-4.885595 -0.15156,-0.931211 -0.15035,-1.811805 0.003,-2.382361 0.21238,-0.788725 0.41698,-0.968067 1.59111,-1.394677 0.89517,-0.325253 2.35142,-0.539002 4.33892,-0.636869 2.33144,-0.114803 3.08679,-0.242715 3.42327,-0.5797 0.41305,-0.413673 0.73519,-1.57311 1.36955,-4.929308 0.15925,-0.842554 0.47053,-2.048936 0.69173,-2.680851 0.54175,-1.547687 0.70221,-3.717538 0.35948,-4.861437 -0.44686,-1.491501 0.12652,-2.830298 1.40071,-3.270511 1.6309,-0.563451 13.55382,0.04429 15.72588,0.801588 0.60592,0.211255 1.79104,0.50371 2.63359,0.649899 2.34015,0.406033 4.56371,0.962192 5.11798,1.280113 0.27447,0.157436 1.24585,0.523939 2.15862,0.814452 1.56539,0.49823 2.18068,0.762344 5.61702,2.411116 2.13874,1.026182 4.89686,2.500351 5.7081,3.050894 0.61844,0.419694 0.70629,0.618607 0.58994,1.335631 -0.0752,0.463373 -0.52641,1.447845 -1.0027,2.187716 -0.47629,0.739871 -1.07294,1.679425 -1.32588,2.087899 -0.47363,0.764845 -0.92535,2.31163 -1.55679,5.330777 -0.19935,0.953166 -0.46347,1.929762 -0.58694,2.170212 -0.12346,0.240451 -0.28712,0.929385 -0.36368,1.530966 -0.1252,0.983803 -0.0581,1.16981 0.66746,1.849883 0.44366,0.415854 0.92691,0.756631 1.07388,0.757279 0.14697,7.66e-4 0.49165,0.176809 0.76595,0.391463 0.83111,0.650369 4.05954,2.66999 4.27102,2.671828 0.10879,0.001 0.31725,0.315881 0.46324,0.699853 0.30987,0.815014 -0.14812,2.842496 -0.68897,3.05004 -0.50085,0.192194 -1.34015,1.749669 -1.6685,3.096207 -0.1607,0.658996 -0.39425,1.329375 -0.51901,1.489733 -0.12476,0.160359 -0.39153,1.136954 -0.59284,2.170213 -0.2013,1.033259 -0.5096,2.49229 -0.68511,3.242288 -0.28042,1.198343 -0.26599,1.456177 0.11906,2.127074 0.24098,0.419893 0.43815,1.102851 0.43815,1.517688 0,0.756585 -0.61795,1.973845 -1.18382,2.331948 -0.68393,0.432811 -1.8324,3.480046 -2.42977,6.44689 -0.14137,0.702127 -0.42019,1.9355 -0.6196,2.740825 -0.46489,1.877526 -0.45619,2.288686 0.0677,3.201576 0.41197,0.71781 0.40511,0.80843 -0.161,2.12708 -0.32521,0.75753 -0.80608,1.65133 -1.06859,1.98623 -0.26252,0.33489 -0.4773,0.75168 -0.4773,0.92618 0,0.17451 -0.15985,0.44995 -0.35522,0.6121 -0.19538,0.16214 -0.4365,0.83684 -0.53584,1.49934 -0.0993,0.6625 -0.2964,1.42091 -0.43792,1.68537 -0.27046,0.5054 -0.89463,3.54686 -1.13893,5.54983 -0.0903,0.7407 -0.038,1.24504 0.14074,1.35549 0.15654,0.0968 0.28462,0.70303 0.28462,1.34731 0,0.95862 -0.16075,1.36756 -0.88495,2.25136 -0.93279,1.13835 -1.73817,2.93334 -2.02582,4.51503 -0.0947,0.52067 -0.33949,1.26748 -0.54402,1.65958 -0.20452,0.3921 -0.37256,1.05025 -0.37343,1.46256 -7.6e-4,0.4123 -0.18269,1.47183 -0.40406,2.35452 -0.36643,1.46112 -0.36643,1.65634 0,2.1795 0.69212,0.98813 0.50582,2.26837 -0.55496,3.81374 -1.35134,1.96867 -1.78739,2.92076 -2.20636,4.81749 -0.20162,0.91276 -0.4998,2.17659 -0.66262,2.80851 -0.16283,0.63191 -0.28249,2.06808 -0.26592,3.19149 0.0166,1.1234 0.0363,2.47651 0.0438,3.00691 0.0104,0.73224 -0.19789,1.2239 -0.86513,2.04256 -0.59167,0.72592 -1.10426,1.82894 -1.56892,3.37606 -0.37958,1.26383 -0.88448,2.87234 -1.12199,3.57447 -0.32039,0.94713 -0.43263,2.16615 -0.43489,4.7234 l -0.003,3.44681 -0.80651,1.02127 c -0.78344,0.99208 -1.92282,3.55222 -2.27257,5.10639 -0.0948,0.42127 -0.33758,1.29071 -0.5395,1.93208 -0.20266,0.64371 -0.3322,1.84472 -0.28917,2.68085 l 0.078,1.51473 2.15748,0.075 c 1.18662,0.0412 2.30684,0.19892 2.48937,0.35041 0.42294,0.35101 0.4313,2.03272 0.0127,2.55953 -0.2859,0.35981 -3.59298,0.41877 -31.74185,0.56586 -30.38648,0.15878 -31.43681,0.14858 -31.85105,-0.30914 z m 18.10886,-3.02722 c 0.32225,-0.21115 0.71652,-0.80535 0.87615,-1.32044 0.15963,-0.5151 0.45267,-1.29858 0.6512,-1.74108 0.19853,-0.4425 0.36096,-1.09912 0.36096,-1.45916 0,-0.36004 0.18928,-1.20438 0.42063,-1.87631 0.23135,-0.67193 0.56703,-1.91105 0.74596,-2.7536 0.17893,-0.84256 0.44647,-1.99149 0.59455,-2.55319 0.14808,-0.56171 0.27197,-2.21963 0.27532,-3.68429 l 0.006,-2.66301 -1.17116,-1.09064 c -1.93745,-1.80423 -4.66024,-1.86555 -6.27913,-0.14142 -1.19287,1.27042 -2.5241,4.77672 -2.86318,7.54127 -0.0836,0.68118 -0.32052,1.77267 -0.52661,2.42553 -1.04688,3.31642 -1.38557,4.63897 -1.54627,6.03809 -0.0968,0.84255 -0.28559,1.73732 -0.41958,1.98836 -0.3192,0.59803 -0.0368,1.44622 0.55486,1.66647 0.2585,0.0962 2.10446,0.13724 4.10214,0.0911 2.68949,-0.0621 3.78422,-0.18346 4.21807,-0.46772 z m 23.02865,0.3211 c 1.12296,-0.58325 1.74123,-1.69305 2.2222,-3.98883 0.84383,-4.02786 1.09193,-6.63205 0.76711,-8.05203 -0.37163,-1.62456 -0.46386,-1.76791 -1.72537,-2.68174 -0.8519,-0.61711 -1.286,-0.7488 -2.46387,-0.74741 -1.48114,0.002 -2.14254,0.29649 -3.43376,1.53023 -0.36743,0.35107 -0.67074,0.75319 -0.67403,0.89362 -0.003,0.14042 -0.17704,0.58331 -0.38612,0.98418 -0.20907,0.40088 -0.48821,1.39994 -0.6203,2.22014 -0.13209,0.8202 -0.38127,1.75493 -0.55373,2.07718 -0.17247,0.32226 -0.4565,1.33384 -0.63117,2.24795 -0.17469,0.91412 -0.44036,2.12161 -0.59038,2.68331 -0.38534,1.4427 -0.34856,2.32546 0.11625,2.79028 0.54975,0.54975 6.93128,0.58427 7.97317,0.0431 z m -11.10228,-0.19077 c 0.74693,-0.39315 0.8654,-0.61251 1.07086,-1.98274 0.0965,-0.64379 0.29189,-1.38798 0.43412,-1.65376 0.14223,-0.26578 0.3611,-1.29959 0.48638,-2.29735 0.12529,-0.99776 0.40023,-2.17749 0.61099,-2.62163 0.52247,-1.10104 0.77405,-5.03894 0.40778,-6.38297 -0.59771,-2.1933 -2.92515,-3.29257 -5.60833,-2.64889 -1.90521,0.45706 -3.09605,2.03572 -3.76206,4.98727 -0.19012,0.84255 -0.52481,2.33617 -0.74375,3.31915 -0.21894,0.98298 -0.56655,2.14928 -0.77245,2.59177 -0.2059,0.4425 -0.37573,1.07442 -0.37738,1.40426 -0.002,0.32984 -0.22598,1.5079 -0.49849,2.61792 -0.7447,3.03334 -0.8456,2.96051 4.10174,2.96051 2.59031,0 4.29764,-0.10776 4.65059,-0.29354 z M 314.34829,180 c 0.66509,-1.3561 1.35031,-4.95363 1.29293,-6.78815 -0.0518,-1.65701 -0.55846,-2.83892 -1.53695,-3.58552 -0.79886,-0.60952 -1.24807,-0.74332 -2.74257,-0.81687 -1.66752,-0.0821 -1.86123,-0.0341 -2.89198,0.71606 -0.64706,0.47091 -1.26189,1.19412 -1.48404,1.74563 -0.20861,0.51789 -0.53256,1.2863 -0.71989,1.70757 -0.18734,0.42128 -0.42329,1.28298 -0.52434,1.9149 -0.10105,0.63191 -0.28164,1.33563 -0.4013,1.56382 -0.36997,0.70551 -0.69937,4.14182 -0.44419,4.63378 0.21302,0.41067 0.6328,0.4464 4.49928,0.38298 l 4.26433,-0.0699 z m 2.46922,-15.6617 c 0.31508,-0.37965 1.31015,-3.34921 1.31015,-3.90985 0,-0.19586 0.22979,-1.00989 0.51064,-1.80896 0.28732,-0.81748 0.51064,-2.10736 0.51064,-2.94943 0,-1.31368 -0.0912,-1.58778 -0.74632,-2.24289 -0.86473,-0.86474 -1.97932,-0.98441 -2.78945,-0.29951 -0.85619,0.72384 -2.20164,4.86258 -2.65745,8.17456 -0.34417,2.50084 -0.22555,2.71268 1.72513,3.08068 1.79093,0.33787 1.81974,0.33727 2.13666,-0.0446 z m -7.76433,-1.7416 c 0.4307,-0.19625 0.72865,-0.60747 0.87868,-1.21277 0.39212,-1.58194 0.49103,-1.90721 0.93847,-3.08606 0.30947,-0.81534 0.44411,-1.98863 0.46373,-4.04098 0.0247,-2.58622 -0.0248,-2.93046 -0.46797,-3.25532 -0.52148,-0.38224 -2.12955,-0.48712 -2.57412,-0.16787 -0.6164,0.44264 -1.19439,1.73454 -1.42969,3.19562 -0.13908,0.8636 -0.37524,1.71763 -0.52479,1.89783 -0.23781,0.28654 -0.50623,1.37425 -1.13582,4.6026 -0.20395,1.0458 0.18586,1.53402 1.39845,1.75155 0.51249,0.0919 1.10414,0.26382 1.31477,0.38197 0.48534,0.27223 0.38133,0.27832 1.13829,-0.0666 z m -6.71708,-3.03529 c 0.37209,-0.76516 0.74868,-1.85077 0.83685,-2.41247 0.0882,-0.56171 0.32444,-1.48085 0.52503,-2.04256 0.20059,-0.5617 0.36976,-1.95642 0.37592,-3.09937 0.0139,-2.58216 -0.39256,-3.2619 -1.91636,-3.20462 -1.72628,0.0649 -2.62648,1.4396 -3.1877,4.86797 -0.14656,0.89529 -0.43577,1.95517 -0.64268,2.35529 -0.20691,0.40013 -0.4459,1.3943 -0.53108,2.20928 -0.12509,1.19683 -0.0737,1.54915 0.26732,1.83217 0.42556,0.35318 2.86693,1.03974 3.34086,0.93951 0.14042,-0.0297 0.55975,-0.68004 0.93184,-1.4452 z m -7.54511,-0.7934 c 0.29649,-0.47974 1.18689,-4.48274 1.64489,-7.39502 0.45751,-2.90918 -0.21165,-4.56448 -1.84521,-4.56448 -0.57153,0 -1.00854,0.25265 -1.65189,0.95503 -0.48112,0.52526 -0.9202,1.1859 -0.97572,1.46808 -0.5779,2.93695 -1.24586,5.86554 -1.5897,6.96975 -0.37724,1.2115 -0.38035,1.39043 -0.0302,1.74059 0.89823,0.89823 4.04232,1.48215 4.44781,0.82605 z m -7.38519,-2.64235 c 0.3051,-0.54097 0.63447,-1.68098 0.73193,-2.53335 0.0975,-0.85237 0.35313,-1.89291 0.56818,-2.31233 0.24162,-0.47123 0.40093,-1.51264 0.41701,-2.72587 0.0244,-1.84043 -0.0209,-2.0124 -0.72388,-2.74806 -0.41244,-0.43163 -0.98691,-0.7801 -1.27659,-0.7744 -1.37671,0.0271 -2.91423,2.60498 -3.34402,5.60665 -0.0905,0.63191 -0.32657,1.64125 -0.52466,2.24296 -0.40215,1.2216 -0.46908,3.0621 -0.13078,3.59614 0.19395,0.30616 2.77723,0.8122 3.47275,0.68027 0.14043,-0.0266 0.50495,-0.49104 0.81006,-1.03201 z m -7.64378,-1.21077 c 0.13754,-0.17553 0.37471,-1.00851 0.52705,-1.85106 0.15233,-0.84255 0.52604,-2.39362 0.83046,-3.44681 0.75105,-2.59835 0.867,-3.70368 0.48521,-4.62538 -0.39011,-0.94183 -1.29311,-1.33011 -2.58552,-1.11176 -1.11502,0.18838 -1.8502,1.15655 -2.12693,2.80097 -0.0945,0.5617 -0.33239,1.48085 -0.52858,2.04255 -0.1962,0.56171 -0.47285,1.71064 -0.61478,2.5532 -0.14193,0.84255 -0.31857,1.81914 -0.39252,2.17021 -0.0739,0.35106 -0.0317,0.79339 0.0939,0.98294 0.45955,0.69356 3.84952,1.07499 4.31171,0.48514 z m 41.10393,-6.89361 c 0.33009,-0.42544 0.99867,-2.60407 1.2197,-3.97453 0.0978,-0.60621 0.39616,-1.72355 0.66308,-2.48298 0.52443,-1.4921 0.63515,-3.44503 0.23744,-4.18815 -0.13633,-0.25473 -0.72261,-0.65311 -1.30286,-0.88527 -1.00193,-0.4009 -1.09363,-0.39766 -1.82329,0.0643 -0.80124,0.5073 -1.44013,1.9786 -2.12434,4.89213 -0.18137,0.77234 -0.45187,1.86383 -0.6011,2.42553 -0.81129,3.05364 -0.0294,4.28601 2.81288,4.43332 0.36898,0.0191 0.7823,-0.10885 0.91849,-0.28438 z m -7.37438,-2.19371 c 0.27599,-0.27598 0.53607,-1.02558 0.62947,-1.81426 0.0876,-0.73918 0.28643,-1.4973 0.44197,-1.68471 0.27988,-0.33724 0.90527,-3.24724 1.17967,-5.48914 0.12268,-1.00235 0.0482,-1.27205 -0.54642,-1.97872 -0.54855,-0.65191 -0.88236,-0.81819 -1.64254,-0.81819 -1.48882,0 -2.37936,1.17148 -2.67903,3.52419 -0.0949,0.74468 -0.33269,1.72128 -0.52852,2.17021 -0.19583,0.44893 -0.55461,1.71391 -0.7973,2.81107 l -0.44123,1.99482 0.64781,0.64781 c 0.59379,0.59379 1.69266,1.01521 2.81902,1.08109 0.24574,0.0144 0.65844,-0.1855 0.9171,-0.44417 z m -7.11568,-2.88785 c 0.32702,-0.72357 0.74062,-2.01613 0.91913,-2.87234 0.17851,-0.85621 0.44571,-2.01632 0.59378,-2.57802 0.14808,-0.5617 0.27197,-1.76068 0.27532,-2.66439 0.007,-1.97469 -0.5747,-2.82497 -1.93372,-2.82497 -1.7372,0 -2.48456,1.21226 -3.30549,5.3617 -0.18059,0.91277 -0.5054,2.11915 -0.7218,2.68085 -0.21641,0.56171 -0.39851,1.44431 -0.40467,1.96134 -0.0161,1.34893 1.1099,2.09929 3.32626,2.21666 0.55555,0.0294 0.74813,-0.16773 1.25119,-1.28083 z m -7.49478,-1.49291 c 0.39461,-0.83306 0.81221,-2.53122 1.13016,-4.59575 0.14057,-0.91276 0.43905,-2.14291 0.66328,-2.73366 0.54568,-1.43766 0.29946,-2.70044 -0.65972,-3.38344 -1.24997,-0.89006 -2.34773,-0.62966 -3.36435,0.79806 -0.53473,0.75096 -0.78385,1.62818 -1.51053,5.31904 -0.15207,0.77234 -0.43785,1.9249 -0.63507,2.56124 -0.65677,2.11904 0.0288,2.81587 2.67812,2.72217 1.21396,-0.0429 1.43513,-0.1325 1.69811,-0.68766 z m -8.01114,-0.95745 c 0.54086,-0.61037 1.21514,-2.69979 1.21514,-3.76543 0,-0.48138 0.23737,-1.47746 0.52749,-2.2135 0.3218,-0.81641 0.54581,-2.02296 0.57447,-3.09415 0.0419,-1.56691 -0.0179,-1.8086 -0.55578,-2.24566 -0.7524,-0.61136 -2.10157,-0.6317 -2.82902,-0.0427 -0.67509,0.54666 -1.7296,3.06696 -1.94372,4.64557 -0.0867,0.63945 -0.3125,1.6222 -0.50171,2.18391 -0.53545,1.58962 -0.69848,3.58586 -0.31847,3.8996 0.25145,0.20761 2.07748,0.78968 3.28376,1.04675 0.0836,0.0178 0.33008,-0.16869 0.54784,-0.41444 z m -7.62759,-1.58273 c 0.51856,-0.19716 0.66728,-0.47073 0.79809,-1.46809 0.0884,-0.67417 0.32145,-1.68535 0.51784,-2.24705 0.19639,-0.5617 0.57328,-2.07545 0.83753,-3.36389 0.5718,-2.7879 0.35393,-3.70262 -1.01942,-4.28007 -0.73865,-0.31058 -0.93701,-0.29665 -1.76078,0.1236 -0.94676,0.48301 -1.76458,1.76519 -1.76458,2.76654 0,0.2919 -0.17127,0.9639 -0.38061,1.49333 -0.20934,0.52944 -0.54766,1.76687 -0.75182,2.74985 -0.20416,0.98298 -0.44172,2.07447 -0.52791,2.42553 -0.20905,0.85145 0.32745,1.52622 1.4175,1.78285 1.24119,0.2922 1.89993,0.29655 2.63416,0.0174 z m 41.69419,-7.22578 c 0.3236,-0.51446 1.08857,-2.83209 1.09765,-3.32553 0.005,-0.24925 0.23812,-1.10697 0.51897,-1.90604 0.3231,-0.91928 0.51064,-2.10736 0.51064,-3.23497 0,-1.58613 -0.0754,-1.86086 -0.68607,-2.49821 -0.89582,-0.93504 -2.14514,-0.97193 -3.02766,-0.0894 -0.34468,0.34468 -0.63077,0.89043 -0.63574,1.21277 -0.005,0.32234 -0.17325,0.87331 -0.37393,1.22437 -0.20069,0.35106 -0.36896,0.89968 -0.37393,1.21914 -0.005,0.31947 -0.23884,1.23464 -0.51969,2.03371 -0.30107,0.85659 -0.51064,2.10736 -0.51064,3.04761 v 1.59475 l 0.95745,0.26509 c 0.52659,0.14581 1.12978,0.37826 1.34042,0.51657 0.53702,0.35263 1.46357,0.32006 1.70253,-0.0599 z m -7.09665,-2.80851 c 1.12755,-3.05613 2.02785,-7.42269 1.8548,-8.9959 -0.13506,-1.22777 -0.7242,-2.11685 -1.51827,-2.29126 -1.68204,-0.36943 -2.93472,0.97494 -3.34672,3.59171 -0.13024,0.82718 -0.4041,2.02098 -0.60859,2.6529 -0.49134,1.51836 -0.94454,3.46522 -0.94454,4.05751 0,0.69673 0.66785,1.13762 2.00769,1.32538 2.12199,0.29738 2.33059,0.2696 2.55563,-0.34034 z m -7.53399,-2.29787 c 0.34638,-0.45638 0.70647,-1.28936 0.80018,-1.85107 0.0937,-0.5617 0.34256,-1.56747 0.55299,-2.23503 0.21043,-0.66757 0.40194,-2.29422 0.42558,-3.61477 0.0397,-2.21948 -0.004,-2.45103 -0.57599,-3.06283 -1.43762,-1.53716 -3.19187,-0.27788 -4.08014,2.92892 -0.29421,1.06215 -0.53746,2.26853 -0.54054,2.68085 -0.003,0.41232 -0.23287,1.25052 -0.51064,1.86266 -0.56722,1.25004 -0.67103,3.21989 -0.18588,3.52697 0.26762,0.1694 1.07463,0.3111 3.1785,0.55814 0.16838,0.0198 0.58956,-0.33746 0.93594,-0.79384 z m -7.34247,-1.51224 c 0.19252,-0.31151 0.40128,-1.15228 0.87654,-3.53032 0.15436,-0.77234 0.45649,-1.98634 0.67139,-2.69779 0.51905,-1.7183 0.49309,-3.03899 -0.0807,-4.10441 -1.20788,-2.2429 -3.9728,-1.05618 -4.54593,1.95114 -0.0937,0.49149 -0.33548,1.64043 -0.53735,2.55319 -0.8692,3.93003 -1.0826,5.2473 -0.88339,5.45294 0.57191,0.59038 4.18047,0.89133 4.49942,0.37525 z m -7.56542,-2.11157 c 0.26746,-0.62394 0.59957,-1.95195 0.73804,-2.95112 0.13846,-0.99918 0.3945,-1.98868 0.56897,-2.19891 0.17446,-0.21021 0.37035,-1.30025 0.43531,-2.4223 0.108,-1.8656 0.0677,-2.09368 -0.47053,-2.66666 -0.8832,-0.94012 -2.29265,-0.86916 -3.15777,0.15898 -0.36355,0.43205 -0.661,0.98096 -0.661,1.21979 0,0.23883 -0.16755,0.67346 -0.37235,0.96585 -0.20479,0.29238 -0.49689,1.31118 -0.6491,2.264 -0.15222,0.95281 -0.37847,1.92244 -0.50278,2.15473 -0.12432,0.23228 -0.30391,1.11067 -0.39909,1.95197 -0.14049,1.24177 -0.0956,1.59391 0.23841,1.87113 0.48154,0.39964 1.72028,0.72389 2.90675,0.76085 0.75818,0.0236 0.88563,-0.083 1.32514,-1.10831 z m -8.10083,-0.39236 c 0.49761,-0.39141 0.68411,-0.83807 0.82622,-1.97872 0.10095,-0.81026 0.30982,-1.70298 0.46416,-1.98384 0.47146,-0.85796 1.12657,-5.04154 0.91385,-5.83594 -0.49829,-1.86086 -2.25975,-2.3048 -3.57183,-0.90021 -0.40884,0.43767 -0.80762,1.0983 -0.88617,1.46808 -0.0785,0.36978 -0.3156,1.18935 -0.52678,1.82127 -0.40485,1.21149 -1.02073,4.00207 -1.27634,5.78328 -0.13384,0.9326 -0.0795,1.09923 0.45272,1.38769 0.5272,0.28575 1.7916,0.62327 2.67678,0.71456 0.1566,0.0161 0.57392,-0.19813 0.92739,-0.47617 z m 42.19315,-8.47967 c 0.31621,-0.93974 0.65668,-2.14612 0.75662,-2.68086 0.0999,-0.53473 0.30076,-1.11632 0.44628,-1.29241 0.14552,-0.1761 0.31783,-1.32503 0.38291,-2.55319 0.11678,-2.20383 0.1082,-2.24387 -0.65602,-3.06281 -0.88725,-0.95078 -1.96305,-1.09769 -2.80453,-0.38298 -0.51613,0.43839 -1.37728,2.677 -1.82979,4.75672 -0.12587,0.57849 -0.40684,1.68002 -0.62437,2.44786 -0.70937,2.50394 -0.37966,3.82169 0.96316,3.84949 0.30593,0.006 0.90091,0.17069 1.32219,0.36524 0.42128,0.19455 0.92406,0.33298 1.1173,0.30763 0.19323,-0.0254 0.61005,-0.81496 0.92625,-1.75469 z m -7.37041,-2.2753 c 0.15959,-0.64646 0.41728,-1.41291 0.57265,-1.70322 0.54665,-1.02142 1.22769,-6.47203 0.94794,-7.58666 -0.33819,-1.34745 -1.7219,-2.02337 -3.07734,-1.50324 -0.66946,0.2569 -1.44875,2.08552 -1.71834,4.03213 -0.13777,0.9948 -0.34874,1.92724 -0.46881,2.07208 -0.20884,0.25194 -1.0137,3.73706 -1.01414,4.39132 -2.5e-4,0.55871 2.33208,1.59503 3.4466,1.53134 0.98785,-0.0564 1.03078,-0.0968 1.31144,-1.23375 z m -7.44892,-2.10048 c 0.18146,-0.44508 0.40993,-1.3837 0.5077,-2.08583 0.0978,-0.70213 0.33859,-1.75972 0.53514,-2.3502 0.19655,-0.59049 0.43408,-1.99346 0.52784,-3.11772 0.22377,-2.683201 -0.13512,-3.340589 -1.82375,-3.340589 -0.9091,0 -1.26137,0.134139 -1.71134,0.651643 -0.67443,0.775666 -1.61176,3.440016 -1.86309,5.295816 -0.099,0.73102 -0.34492,1.65109 -0.54649,2.04458 -0.2108,0.41155 -0.33366,1.22496 -0.28921,1.9149 0.0772,1.19805 0.0787,1.19979 1.26737,1.49322 0.65455,0.16158 1.3984,0.41034 1.65298,0.55282 0.64286,0.35976 1.33629,-0.0614 1.74285,-1.05864 z m -7.1073,-3.23476 c 0.32951,-1.33405 0.60484,-2.71277 0.61184,-3.06383 0.007,-0.35107 0.17694,-0.92554 0.37762,-1.2766 0.21108,-0.36925 0.3687,-1.34598 0.37393,-2.317198 0.008,-1.424282 -0.0781,-1.757318 -0.56542,-2.195995 -1.37998,-1.242168 -2.70604,-1.012003 -3.67269,0.637473 -0.65488,1.117458 -0.98866,2.33164 -1.73225,6.30125 -0.18413,0.98298 -0.41509,2.08299 -0.51325,2.44448 -0.12344,0.4546 -0.0561,0.75882 0.21851,0.9867 0.67883,0.56338 2.27193,1.02931 3.30965,0.96795 l 0.99294,-0.0587 z m -8.82312,0.75674 c 0.63166,-0.33805 1.12962,-1.53778 1.35898,-3.2742 0.0994,-0.75268 0.37501,-1.66497 0.61242,-2.02729 0.32726,-0.49948 0.43228,-1.23832 0.43429,-3.055325 0.003,-2.563575 -0.17416,-2.933456 -1.57147,-3.284331 -0.85173,-0.213875 -2.36138,0.617548 -2.5496,1.404166 -0.0884,0.36945 -0.33541,1.016405 -0.54891,1.437682 -0.21351,0.421277 -0.53259,1.512766 -0.70907,2.425528 -0.17649,0.91277 -0.45236,2.19503 -0.61306,2.84947 -0.16069,0.65444 -0.25634,1.68848 -0.21254,2.29787 l 0.0796,1.10798 1.53191,0.14857 c 0.84255,0.0817 1.56819,0.16788 1.61253,0.19149 0.0443,0.0236 0.30304,-0.0761 0.57489,-0.22161 z m -6.97549,-1.43801 c 0.17599,-0.24069 0.32503,-0.96139 0.33119,-1.60158 0.006,-0.64018 0.18932,-1.62354 0.40702,-2.18524 0.2177,-0.5617 0.57635,-1.99999 0.79702,-3.196205 0.34966,-1.895507 0.35449,-2.272729 0.0377,-2.93617 -0.3242,-0.678843 -0.50484,-0.769471 -1.66888,-0.837271 -1.18777,-0.06918 -1.36487,-0.0053 -1.96643,0.709642 -0.36361,0.43212 -0.73848,1.213144 -0.83305,1.735606 -0.0946,0.522462 -0.31357,1.237164 -0.48667,1.588228 -0.1731,0.351064 -0.39193,1.09787 -0.48628,1.65957 -0.0944,0.56171 -0.36572,1.79984 -0.60305,2.75141 -0.52827,2.11819 -0.33776,2.54343 1.24292,2.77436 1.58357,0.23134 2.85438,0.0494 3.22855,-0.46235 z m 41.59755,-7.849811 c 0.31374,-0.809966 0.6475,-2.007995 0.7417,-2.662284 0.0942,-0.654291 0.32712,-1.571466 0.51762,-2.038169 0.52699,-1.291085 0.69844,-3.886956 0.30499,-4.617779 -0.18218,-0.338395 -0.76146,-0.837633 -1.2873,-1.109418 -0.9356,-0.483579 -0.97351,-0.483957 -1.77192,-0.01767 -0.84263,0.49212 -1.07539,1.046648 -1.85667,4.4232 -0.1787,0.772341 -0.51281,1.954016 -0.74247,2.625945 -0.6101,1.785041 -0.55024,3.289869 0.15691,3.944535 0.52242,0.483644 2.51627,1.108662 3.11953,0.977888 0.13595,-0.02947 0.50388,-0.716285 0.81761,-1.526252 z m -7.01843,-3.405094 c 0.73775,-1.949196 1.48602,-5.607735 1.48459,-7.258621 -10e-4,-1.317465 -0.7504,-2.672671 -1.67121,-3.022762 -1.40085,-0.532603 -2.96414,1.465254 -3.29995,4.217288 -0.10279,0.842407 -0.32819,1.819003 -0.50089,2.170212 -0.1727,0.35121 -0.45125,1.41575 -0.619,2.365647 -0.35316,1.9998 -0.1434,2.651768 0.92916,2.887979 0.38212,0.08416 0.80966,0.191334 0.95008,0.238177 0.14043,0.04684 0.66474,0.09424 1.16513,0.105327 0.89326,0.01979 0.92168,-0.01121 1.56209,-1.703247 z m -7.95546,-0.832889 c 0.2796,-0.149643 0.55084,-0.660149 0.64436,-1.212766 0.0888,-0.524891 0.38051,-1.764179 0.64819,-2.753975 1.08934,-4.027984 0.89158,-7.28198 -0.47411,-7.801218 -2.09497,-0.796504 -3.2476,0.840253 -4.24387,6.02638 -0.18883,0.982979 -0.54045,2.379776 -0.78137,3.103994 -0.32821,0.986607 -0.36992,1.444057 -0.16633,1.824459 0.4466,0.834478 3.33108,1.370809 4.37313,0.813126 z m -7.73223,-1.737411 c 0.40913,-0.259849 1.01563,-2.254553 1.37274,-4.514806 0.15531,-0.982979 0.42712,-2.074469 0.60403,-2.425532 0.51489,-1.021777 0.68281,-2.859258 0.32365,-3.541729 -0.17527,-0.333059 -0.73646,-0.84575 -1.24709,-1.139316 -0.79314,-0.455974 -1.0276,-0.488566 -1.60902,-0.223657 -0.40311,0.183672 -0.83458,0.700221 -1.05831,1.266976 -0.20775,0.526281 -0.5332,1.244109 -0.72321,1.595172 -0.19002,0.351064 -0.42946,1.040426 -0.53211,1.531915 -0.10264,0.49149 -0.28954,1.021841 -0.41533,1.178561 -0.22355,0.278515 -0.81743,4.107072 -0.78076,5.033329 0.0393,0.992471 0.67534,1.291575 2.98333,1.402915 0.42127,0.02032 0.90821,-0.0534 1.08208,-0.163828 z m -7.40993,-1.981014 c 0.31483,-0.572372 0.68564,-1.8391 0.82405,-2.81495 0.1384,-0.97585 0.43439,-2.140611 0.65775,-2.588356 0.22337,-0.447749 0.47099,-1.593787 0.55029,-2.546753 0.12399,-1.490208 0.072,-1.821477 -0.37154,-2.367314 -0.40872,-0.502981 -0.73555,-0.628879 -1.5754,-0.606858 -1.29787,0.03403 -2.20628,0.799928 -2.57562,2.171541 -0.14266,0.529812 -0.36039,1.025721 -0.48385,1.102018 -0.12345,0.0763 -0.30708,0.739471 -0.40807,1.473718 -0.10098,0.734244 -0.34153,1.782602 -0.53456,2.329688 -0.44063,1.248875 -0.46722,4.147646 -0.0405,4.411394 0.43829,0.270875 1.99687,0.563502 2.75004,0.516324 0.45909,-0.02876 0.79354,-0.328044 1.20738,-1.080452 z m -7.87391,-0.29975 c 0.3912,-0.326308 0.57668,-0.859956 0.68774,-1.978723 0.0836,-0.842553 0.36284,-2.048936 0.62044,-2.680851 0.59112,-1.450017 0.90014,-4.493398 0.54851,-5.401882 -0.47996,-1.240026 -2.55656,-1.178546 -3.62958,0.107461 -0.26205,0.314058 -0.48027,0.69034 -0.48494,0.836181 -0.005,0.14584 -0.24338,0.720309 -0.53046,1.276595 -0.85652,1.659723 -1.80458,6.924363 -1.42506,7.913395 0.22107,0.576102 3.50356,0.519871 4.21335,-0.07218 z m 41.56797,-6.765957 c 0.23056,-0.359206 0.70297,-1.930928 1.20864,-4.021277 0.18684,-0.77234 0.46904,-1.727691 0.62711,-2.123004 0.15807,-0.395311 0.2874,-1.50671 0.2874,-2.469771 0,-1.511293 -0.0905,-1.858573 -0.66099,-2.53657 -1.23084,-1.462767 -3.17078,-0.895732 -3.64531,1.06551 -0.49683,2.053392 -0.85977,3.386758 -1.35413,4.974789 -0.28537,0.916703 -0.46246,2.104555 -0.41755,2.800808 0.0765,1.186481 0.10414,1.222146 1.48224,1.914556 1.54854,0.77805 2.16362,0.876302 2.47259,0.394959 z m -6.58929,-4.501484 c 0.68123,-1.868333 1.31501,-4.974122 1.48046,-7.25486 0.11479,-1.582399 0.0667,-1.812669 -0.54684,-2.617021 -1.60104,-2.099079 -3.92877,-0.372848 -4.35813,3.231977 -0.0901,0.756486 -0.37867,2.022904 -0.64126,2.814263 -0.63639,1.917879 -0.7563,4.041057 -0.24307,4.304071 1.28558,0.65882 2.26834,0.99241 2.96579,1.006726 0.74254,0.01524 0.83208,-0.08377 1.34305,-1.485156 z m -7.63903,-1.421377 c 0.16874,-0.203318 0.39833,-0.97885 0.51021,-1.723404 0.11188,-0.744554 0.40637,-2.100544 0.65444,-3.01331 0.24806,-0.912766 0.46339,-2.616597 0.4785,-3.786296 0.0262,-2.028779 -0.006,-2.155177 -0.6889,-2.74468 -1.10776,-0.955593 -2.0665,-0.825162 -2.95551,0.402078 -0.4064,0.561021 -0.81392,1.451446 -0.90559,1.978724 -0.0917,0.527277 -0.27712,1.245919 -0.4121,1.596983 -0.13498,0.351064 -0.42152,1.557447 -0.63676,2.680851 -0.21525,1.123404 -0.4464,2.329787 -0.51369,2.680851 -0.14993,0.782247 0.60203,1.740447 1.60169,2.040973 1.14195,0.343302 2.53466,0.288536 2.86771,-0.11277 z M 314.9983,75 c 0.26544,-0.33574 0.318,-0.521134 0.95902,-3.382979 0.22018,-0.982978 0.56879,-2.149279 0.77469,-2.591778 0.21066,-0.452719 0.37437,-1.546383 0.37437,-2.500966 0,-1.460716 -0.0871,-1.783499 -0.62669,-2.323117 -0.62468,-0.624681 -1.47458,-0.775028 -2.63038,-0.46531 -0.72997,0.195609 -1.73033,2.143479 -2.08435,4.058587 -0.14505,0.784629 -0.33748,1.545942 -0.42763,1.691803 -0.34016,0.550402 -0.81517,4.937617 -0.56767,5.243114 0.47832,0.590405 3.80739,0.803474 4.22864,0.270646 z m -8.24371,-0.860755 c 0.52306,-0.200716 1.0749,-1.508933 1.30214,-3.086926 0.0968,-0.672393 0.39177,-1.704526 0.65541,-2.293631 0.34634,-0.773896 0.47935,-1.668488 0.47935,-3.224056 0,-2.519877 -0.23123,-2.853781 -1.97624,-2.853781 -0.92352,0 -1.2452,0.131829 -1.74799,0.716365 -0.33891,0.394001 -0.6162,0.914181 -0.6162,1.155956 0,0.241775 -0.16849,0.680149 -0.37443,0.974165 -0.75787,1.08201 -1.92835,7.279632 -1.50237,7.954952 0.42097,0.667366 2.71452,1.065947 3.78033,0.656956 z m -7.37522,-1.03669 c 0.30276,-0.45026 0.62149,-1.452753 0.71509,-2.249137 0.0929,-0.790238 0.36226,-1.731947 0.59862,-2.092685 0.32816,-0.500837 0.43284,-1.2637 0.44281,-3.227024 0.0127,-2.500456 -0.005,-2.581353 -0.64294,-2.942745 -0.41686,-0.236142 -0.91441,-0.306751 -1.36487,-0.193693 -0.79541,0.199635 -2.19107,1.594067 -2.19348,2.191545 -7.7e-4,0.214449 -0.18302,0.734588 -0.40479,1.155865 -0.22177,0.421276 -0.55905,1.512766 -0.74953,2.425532 -0.19047,0.912766 -0.46515,2.119149 -0.6104,2.680851 -0.35761,1.382982 -0.34185,2.513139 0.0404,2.895373 0.20418,0.204183 0.9038,0.290333 1.96976,0.242553 1.53747,-0.06891 1.69131,-0.130918 2.19934,-0.886435 z m 35.47212,-9.528778 c 0.087,-0.140805 0.25264,-0.801444 0.36804,-1.468085 0.2391,-1.381217 0.87259,-3.946538 1.42568,-5.773309 0.50963,-1.683213 0.47335,-2.52129 -0.15525,-3.586695 -0.5631,-0.954378 -1.68174,-1.376027 -2.86363,-1.079392 -1.30651,0.327913 -3.40382,7.901932 -2.86608,10.350261 0.12658,0.576338 0.42779,0.854365 1.36073,1.256039 1.32024,0.56842 2.48589,0.696993 2.73051,0.301181 z m -7.88971,-2.747899 c 0.49174,-0.328345 0.89165,-1.317308 1.13345,-2.802968 0.12915,-0.793546 0.42753,-1.848919 0.66307,-2.345273 0.30849,-0.650094 0.43489,-1.640817 0.45199,-3.542813 0.0273,-3.036722 -0.17214,-3.368867 -2.02309,-3.368867 -1.36994,0 -2.07637,0.734705 -2.41296,2.509521 -0.13914,0.733705 -0.35693,1.531981 -0.48396,1.773946 -0.12704,0.241966 -0.31474,0.945257 -0.41712,1.56287 -0.10238,0.617612 -0.34551,1.504347 -0.54029,1.970522 -0.43524,1.041664 -0.46234,2.951548 -0.0478,3.36612 0.16851,0.168511 0.54191,0.310454 0.82978,0.31543 0.28788,0.005 0.81064,0.173246 1.16171,0.373932 0.71192,0.406973 1.26449,0.46848 1.68518,0.18758 z m -6.85019,-3.614496 c 0.17839,-0.901826 0.43082,-1.76797 0.56094,-1.924765 0.13013,-0.156795 0.36244,-1.072812 0.51625,-2.035593 0.1538,-0.962781 0.38967,-1.956105 0.52416,-2.207387 0.4805,-0.897838 0.2827,-2.56239 -0.41288,-3.474334 -0.59753,-0.783406 -0.74282,-0.846654 -1.59574,-0.694683 -1.6242,0.289391 -2.85326,1.8813 -2.85326,3.695615 0,0.43967 -0.16425,1.161446 -0.36501,1.603945 -0.20075,0.442499 -0.61376,1.823604 -0.91779,3.069123 -0.46345,1.898631 -0.4972,2.320154 -0.20886,2.608492 0.56651,0.566513 2.31672,1.106589 3.40656,1.051186 l 1.02127,-0.05192 z m -7.93509,-0.613969 c 0.16729,-0.677806 0.41505,-1.367168 0.55058,-1.531915 0.13552,-0.164747 0.32553,-0.874009 0.42223,-1.576136 0.0967,-0.702128 0.33725,-1.843194 0.53454,-2.535703 0.4196,-1.472869 0.46872,-3.547619 0.10028,-4.236053 -0.34323,-0.641325 -1.83938,-0.904984 -2.82312,-0.497503 -0.97252,0.402831 -1.72323,1.82693 -2.05762,3.903298 -0.13829,0.858668 -0.3628,1.695411 -0.49892,1.859429 -0.23244,0.280065 -1.00021,3.805585 -1.00021,4.592821 0,0.198286 0.23491,0.595439 0.52204,0.882563 0.44074,0.440739 0.78867,0.510326 2.23404,0.446809 l 1.712,-0.07524 z"
       id="path459" />
    <path
       style="fill:#ffffff;fill-opacity:1;stroke-width:3.82979;stop-color:#000000"
       d="m 147.32756,184.10081 c -0.18121,-0.33858 -0.24454,-18.06275 -0.20048,-56.10638 l 0.0644,-55.611451 h 9.31915 9.31915 l 0.12766,26.792298 0.12766,26.792293 0.81577,0.21138 c 0.44868,0.11625 12.17892,0.18099 26.06721,0.14387 20.95364,-0.056 25.32327,-0.12714 25.67358,-0.41791 0.38773,-0.32184 0.42216,-2.52371 0.42216,-27.000001 v -26.64959 h 9.28723 9.28724 l 0.15957,0.797873 c 0.27376,1.368794 0.18602,110.163148 -0.0894,110.887638 l -0.249,0.65491 h -9.07015 c -4.98858,0 -9.09704,-0.0287 -9.1299,-0.0638 -0.0329,-0.0351 -0.11903,-12.10822 -0.19149,-26.82914 -0.12857,-26.12041 -0.14368,-26.77405 -0.62735,-27.12766 -0.42022,-0.30723 -4.40299,-0.36234 -26.18298,-0.36234 -19.63864,0 -25.75951,0.0721 -25.99375,0.30638 -0.23435,0.23434 -0.30638,6.51153 -0.30638,26.69763 0,17.70391 -0.087,26.55382 -0.26431,26.88511 -0.25356,0.47379 -0.62664,0.49385 -9.1825,0.49385 -8.56255,0 -8.92877,-0.0197 -9.18308,-0.49493 z"
       id="path461" />
    <path
       style="fill:#ffffff;fill-opacity:1;stroke-width:3.82979;stop-color:#000000"
       d="m 91.659575,188.4135 c -1.053192,-0.0968 -3.523405,-0.31269 -5.489362,-0.47971 -1.965958,-0.16702 -3.919149,-0.41622 -4.340426,-0.55376 -0.421276,-0.13755 -1.56133,-0.3631 -2.533455,-0.50124 -0.972123,-0.13813 -1.90201,-0.36279 -2.066418,-0.49924 -0.164405,-0.13644 -1.092437,-0.41415 -2.062289,-0.61712 -2.340202,-0.48975 -4.435218,-1.09745 -4.792867,-1.39026 -0.159309,-0.13043 -0.806673,-0.36806 -1.438588,-0.52807 -1.200235,-0.30393 -1.273044,-0.33203 -3.622486,-1.39797 -0.798753,-0.36239 -1.574434,-0.6589 -1.723738,-0.6589 -0.149305,0 -1.219186,-0.47753 -2.377513,-1.06119 -1.158328,-0.58365 -2.301657,-1.15568 -2.540733,-1.27118 -1.455101,-0.70297 -4.92296,-2.61796 -5.718449,-3.15779 -0.516671,-0.35062 -1.086136,-0.6375 -1.265476,-0.6375 -0.17934,0 -0.364371,-0.0862 -0.411179,-0.19148 -0.04681,-0.10532 -0.602128,-0.52543 -1.234043,-0.93356 -0.631915,-0.40814 -1.493617,-0.97888 -1.914893,-1.26831 -0.421277,-0.28943 -1.462522,-0.99363 -2.313878,-1.56489 -0.851357,-0.57126 -1.713059,-1.176 -1.914894,-1.34387 -0.201835,-0.16786 -1.332396,-1.08292 -2.512358,-2.03346 -1.179962,-0.95054 -2.233101,-1.97075 -2.340308,-2.26713 -0.152296,-0.42103 0.136151,-1.0073 1.319003,-2.68085 0.83266,-1.17809 1.619863,-2.38844 1.74934,-2.68967 0.129478,-0.30123 0.329009,-0.58846 0.443403,-0.6383 0.31071,-0.13535 1.612245,-2.11589 1.612245,-2.45334 0,-0.16101 0.154888,-0.38462 0.344196,-0.49692 0.189308,-0.11229 0.676471,-0.72119 1.082585,-1.35311 0.406114,-0.63191 1.170375,-1.705 1.698357,-2.38463 0.527983,-0.67963 0.959968,-1.3845 0.959968,-1.56638 0,-0.18188 0.284866,-0.51734 0.633035,-0.74547 0.630255,-0.41296 0.640062,-0.40617 2.234042,1.54475 1.601471,1.9601 4.371233,5.21333 5.89688,6.92619 1.525602,1.7128 8.499299,8.60737 9.740324,9.6298 0.681797,0.5617 1.426708,1.1986 1.655359,1.41534 0.604507,0.57301 4.43901,3.62476 5.118981,4.07402 0.318806,0.21064 0.879623,0.62031 1.246258,0.91038 1.139331,0.90142 3.743319,2.66409 3.93564,2.66409 0.10066,0 0.734074,0.38733 1.407588,0.86073 0.673514,0.4734 1.505313,0.94656 1.848444,1.05147 0.343131,0.10491 0.796215,0.33591 1.006853,0.51333 0.210639,0.17742 0.670213,0.40768 1.021277,0.51169 0.351064,0.104 0.789215,0.31006 0.97367,0.4579 0.184453,0.14784 0.931261,0.4822 1.659574,0.74303 0.728311,0.26083 1.956118,0.70889 2.728458,0.99569 2.498625,0.92784 8.330796,1.73139 10.747468,1.48078 2.42422,-0.2514 5.96069,-0.90932 6.51322,-1.21171 0.89916,-0.49209 3.38686,-1.57313 3.6201,-1.57313 0.12736,0 0.43951,-0.22978 0.69368,-0.51064 0.25417,-0.28085 0.57829,-0.51063 0.72028,-0.51063 0.14199,0 0.44014,-0.16174 0.66256,-0.35942 0.8432,-0.7494 3.98985,-3.9292 4.23418,-4.27878 1.21846,-1.74333 2.31346,-4.24544 2.66924,-6.09932 0.64783,-3.37569 0.69718,-3.87739 0.48386,-4.91929 -0.12011,-0.58663 -0.3426,-1.75596 -0.49444,-2.59851 -0.15183,-0.84256 -0.43874,-1.89396 -0.63757,-2.33646 -0.19883,-0.4425 -0.36151,-0.88442 -0.36151,-0.98205 0,-0.31352 -1.87852,-3.18013 -3.065,-4.67716 -0.63256,-0.79813 -1.89639,-2.14898 -2.80851,-3.00189 -1.73012,-1.61779 -6.68516,-5.4171 -7.38323,-5.66112 -0.22156,-0.0774 -0.63263,-0.34106 -0.91348,-0.5858 -0.28085,-0.24474 -1.14255,-0.76979 -1.91489,-1.16677 -0.77234,-0.39699 -1.76702,-0.96578 -2.21039,-1.26398 -0.443375,-0.2982 -2.224226,-1.2565 -3.957447,-2.12956 -1.733221,-0.87305 -3.323653,-1.6917 -3.534291,-1.81922 -0.210638,-0.12753 -1.129787,-0.58182 -2.042553,-1.00954 -0.912766,-0.42772 -1.831915,-0.8774 -2.042553,-0.99929 -0.210639,-0.12188 -0.957447,-0.4721 -1.659575,-0.77826 -0.702128,-0.30615 -1.448936,-0.66674 -1.659574,-0.80131 -0.210639,-0.13457 -0.785107,-0.41898 -1.276596,-0.63204 -0.798143,-0.34598 -8.150004,-3.90267 -9.243194,-4.47168 -2.090558,-1.08813 -5.237673,-2.78222 -6.673282,-3.59222 -0.960447,-0.5419 -1.788322,-0.98527 -1.839725,-0.98527 -0.05141,0 -0.488849,-0.25851 -0.9721,-0.57447 -0.48325,-0.31596 -1.645637,-1.03404 -2.583082,-1.59574 -0.937445,-0.5617 -2.316935,-1.48085 -3.065533,-2.04256 -0.748599,-0.5617 -1.617935,-1.19361 -1.931859,-1.40425 -2.29226,-1.53807 -6.730094,-5.83124 -8.747895,-8.46272 -0.390525,-0.5093 -1.688276,-2.45656 -2.259888,-3.39094 -0.09219,-0.1507 -0.472146,-1.02081 -0.844341,-1.93357 -0.372196,-0.91277 -0.842511,-1.96454 -1.045144,-2.33727 -0.202634,-0.37273 -0.368425,-0.93155 -0.368425,-1.24181 0,-0.31027 -0.191792,-1.74908 -0.426204,-3.197358 -0.400274,-2.473029 -0.399337,-2.840191 0.0154,-6.034785 0.410454,-3.161616 0.723058,-4.271147 1.97333,-7.003981 0.264016,-0.577083 0.480029,-1.119221 0.480029,-1.204751 0,-0.501924 2.482887,-3.665927 4.340426,-5.53111 3.055518,-3.068093 3.859047,-3.7269 5.80851,-4.762352 0.456383,-0.242406 0.829787,-0.525224 0.829787,-0.628483 0,-0.10326 0.343364,-0.26316 0.76303,-0.355334 0.419666,-0.09217 0.819569,-0.259072 0.888673,-0.370885 0.181956,-0.294411 2.683698,-1.478617 3.58234,-1.695709 0.421277,-0.101771 0.995745,-0.327926 1.276596,-0.502567 0.280851,-0.17464 0.912766,-0.39952 1.404255,-0.499732 0.491489,-0.100212 1.021226,-0.284614 1.177192,-0.40978 0.155967,-0.125167 1.132563,-0.392946 2.170213,-0.595066 1.03765,-0.202119 2.461106,-0.485724 3.163233,-0.630233 C 76.904229,68.378693 77.760342,68.297872 84,68.297872 c 6.20942,0 7.804246,0.153645 12.255319,1.180676 0.631915,0.145807 2.010638,0.420228 3.06383,0.609825 1.740521,0.313331 3.086391,0.682242 5.234041,1.434682 0.42128,0.147596 1.22553,0.383201 1.78724,0.523567 0.5617,0.140367 1.36595,0.412829 1.78723,0.605473 1.59387,0.728854 3.26586,1.390458 3.51393,1.390458 0.14164,0 1.1898,0.446827 2.32925,0.992948 1.13944,0.546121 2.35895,1.124427 2.71001,1.285126 1.18132,0.540743 3.84575,2.013071 4.24971,2.348331 0.50239,0.416942 1.26368,0.866971 2.30137,1.360417 0.44351,0.210904 0.84564,0.472488 0.89361,0.581299 0.048,0.10881 0.60425,0.539004 1.23616,0.955986 1.43458,0.94664 5.01844,3.809047 6.18209,4.9376 0.59376,0.57586 2.46244,2.688398 2.97561,3.363917 l 0.6045,0.79576 -2.26408,2.194417 c -1.24524,1.206929 -3.93003,3.80063 -5.9662,5.763776 -2.03617,1.96315 -4.51403,4.35925 -5.50634,5.32468 -0.99231,0.96542 -1.91571,1.75532 -2.05199,1.75532 -0.13627,0 -0.74125,-1.06277 -1.3444,-2.3617 -0.60314,-1.29894 -1.36844,-2.87873 -1.70065,-3.510643 -0.33222,-0.631915 -1.01892,-1.979315 -1.526,-2.994224 -0.50709,-1.014909 -1.02016,-1.905973 -1.14016,-1.980141 -0.12001,-0.07417 -0.47338,-0.661991 -0.78528,-1.306279 -0.31189,-0.644289 -0.83885,-1.464684 -1.17102,-1.823102 -0.33217,-0.358418 -0.60395,-0.783108 -0.60395,-0.943755 0,-0.160647 -0.45957,-0.79991 -1.02128,-1.420584 -0.5617,-0.620674 -1.02127,-1.20858 -1.02127,-1.306459 0,-0.261305 -2.98162,-3.725205 -4.73691,-5.503113 -3.0938,-3.133659 -9.455435,-7.743619 -10.686017,-7.743619 -0.131448,0 -0.440706,-0.182546 -0.687242,-0.405657 -0.246534,-0.223111 -0.830051,-0.500255 -1.2967,-0.615876 C 91.147762,73.671357 90.421277,73.457454 90,73.311637 c -3.389377,-1.173164 -4.487653,-1.395904 -7.404255,-1.501648 -3.923533,-0.14225 -5.825592,0.203502 -9.632002,1.750886 -3.089178,1.255816 -6.595254,4.309826 -8.286026,7.217647 -1.705373,2.932929 -1.730185,3.045035 -1.730185,7.817223 0,4.351296 0.01819,4.50479 0.696094,5.87234 0.726381,1.465353 0.905714,1.777841 1.967048,3.42755 1.7137,2.663725 4.192315,5.028975 9.197837,8.777165 0.351064,0.26288 1.155319,0.79086 1.787234,1.17328 0.631915,0.38242 1.953191,1.19387 2.93617,1.80321 0.982979,0.60934 2.534042,1.49285 3.446808,1.96335 0.912766,0.47049 1.717022,0.92254 1.787234,1.00455 0.07021,0.082 0.989362,0.57284 2.042554,1.09074 1.053191,0.51791 2.087234,1.04964 2.297872,1.18163 0.210638,0.13199 1.014894,0.54058 1.787234,0.90799 0.77234,0.3674 1.691489,0.82075 2.042553,1.00743 0.351064,0.18668 1.270213,0.64448 2.042553,1.01732 0.772341,0.37285 1.576596,0.77306 1.787234,0.88936 0.210639,0.1163 1.531915,0.75507 2.936171,1.41949 1.404252,0.66443 2.725532,1.30359 2.936172,1.42037 1.34361,0.74492 3.53418,1.76763 3.78613,1.76763 0.16444,0 0.29897,0.0975 0.29897,0.21659 0,0.11912 0.43086,0.40244 0.95745,0.6296 0.5266,0.22715 1.12979,0.53188 1.34043,0.67718 0.21063,0.14529 0.67021,0.3807 1.02127,0.52313 0.35107,0.14242 0.98298,0.48643 1.40426,0.76446 0.42128,0.27803 1.22553,0.73273 1.78723,1.01045 2.06669,1.02181 4.25153,2.29368 5.17707,3.01376 0.52283,0.40676 1.12293,0.80209 1.33357,0.87851 0.5384,0.19533 3.7796,2.38871 4.85106,3.28281 4.87456,4.06763 5.72703,4.87371 7.69397,7.27523 2.03704,2.48711 2.95464,3.86799 3.89126,5.85594 0.39697,0.84255 0.88382,1.87659 1.08189,2.29787 1.08469,2.30702 1.64637,8.56323 1.01717,11.32962 -0.22423,0.98585 -0.40769,2.10691 -0.40769,2.49124 0,0.64663 -0.22719,1.2437 -1.55227,4.07945 -0.26965,0.57708 -0.49028,1.17206 -0.49028,1.32218 0,0.15012 -0.14362,0.42478 -0.31915,0.61034 -0.17553,0.18556 -0.66032,0.8544 -1.0773,1.48632 -1.55221,2.3523 -3.67843,4.69974 -5.98246,6.60491 -1.6563,1.36957 -5.84167,4.09471 -6.56929,4.27733 -0.3354,0.0842 -0.66847,0.24796 -0.74017,0.36396 -0.17556,0.28406 -2.80916,1.51976 -3.23901,1.51976 -0.18809,0 -0.58301,0.16882 -0.8776,0.37516 -0.59935,0.4198 -4.266,1.66652 -4.90846,1.66896 -0.22782,7.7e-4 -0.74538,0.17428 -1.15013,0.38537 -0.40475,0.21108 -1.20901,0.4521 -1.78724,0.53559 -0.57822,0.0835 -1.68324,0.30369 -2.45558,0.48934 -0.77234,0.18564 -2.3234,0.4083 -3.4468,0.4948 -1.12341,0.0865 -3.306387,0.27058 -4.851068,0.40908 -4.478645,0.40158 -4.750877,0.41065 -6.765957,0.22541 z"
       id="path463" />
    <path
       style="fill:#ffffff;fill-opacity:1;stroke-width:3.82979;stop-color:#000000"
       d="m 392.84338,183.09573 c -0.37024,-0.825 -0.67707,-1.71543 -0.68183,-1.97872 -0.005,-0.26329 -0.23065,-0.93829 -0.50198,-1.49999 -0.27132,-0.5617 -0.49791,-1.19362 -0.50354,-1.40425 -0.006,-0.21064 -0.17044,-0.69004 -0.36625,-1.06534 -0.19581,-0.3753 -0.47546,-1.23936 -0.62146,-1.92012 -0.146,-0.68077 -0.44395,-1.58009 -0.66212,-1.99849 -0.21817,-0.41841 -0.39809,-0.93308 -0.39982,-1.14371 -0.002,-0.21064 -0.17048,-0.70379 -0.375,-1.09589 -0.20453,-0.39211 -0.45044,-1.13891 -0.54648,-1.65958 -0.096,-0.52066 -0.38757,-1.34709 -0.64785,-1.8365 -0.26027,-0.48941 -0.47322,-1.0983 -0.47322,-1.3531 0,-0.2548 -0.15699,-0.77352 -0.34886,-1.15272 -0.19187,-0.3792 -0.42978,-1.13588 -0.5287,-1.68153 -0.0989,-0.54564 -0.40151,-1.40564 -0.67242,-1.91111 -0.27092,-0.50547 -0.49257,-1.1275 -0.49257,-1.3823 0,-0.2548 -0.15699,-0.77352 -0.34886,-1.15272 -0.19187,-0.3792 -0.43194,-1.14902 -0.53349,-1.71072 -0.10154,-0.56171 -0.27783,-1.13617 -0.39175,-1.2766 -0.24036,-0.29629 -1.53441,-4.09028 -1.53441,-4.4987 0,-0.15136 -0.16521,-0.63724 -0.36712,-1.07973 -0.51036,-1.11848 -1.67544,-4.60135 -1.67544,-5.00854 0,-0.1847 -0.21651,-0.80798 -0.48114,-1.38506 -0.26464,-0.57709 -0.73322,-1.91095 -1.04131,-2.96414 -0.30809,-1.05319 -0.78094,-2.38705 -1.05077,-2.96414 -0.26983,-0.57708 -0.49061,-1.20089 -0.49061,-1.38625 0,-0.50065 -0.99625,-3.53794 -1.55522,-4.7414 -0.26803,-0.57709 -0.48804,-1.26645 -0.4889,-1.53192 -8.7e-4,-0.26547 -0.15704,-0.7806 -0.34705,-1.14472 -0.19001,-0.36413 -0.42011,-1.05994 -0.51134,-1.54624 -0.0912,-0.4863 -0.39464,-1.33288 -0.67424,-1.88129 -0.27959,-0.54842 -0.51242,-1.23133 -0.5174,-1.5176 -0.005,-0.28627 -0.17325,-0.80772 -0.37393,-1.15878 -0.20069,-0.35106 -0.36896,-0.87252 -0.37393,-1.15878 -0.005,-0.28627 -0.23217,-0.95813 -0.50488,-1.49302 -0.27271,-0.5349 -0.57199,-1.33473 -0.66508,-1.77739 -0.26171,-1.24456 -1.10913,-3.79776 -1.49588,-4.50698 -0.19145,-0.35106 -0.43084,-1.04043 -0.532,-1.53192 -0.21262,-1.03306 -0.98907,-3.42948 -1.50643,-4.64944 -0.19591,-0.46196 -0.60385,-1.70162 -0.90653,-2.75481 -0.30269,-1.05319 -0.77463,-2.33978 -1.04877,-2.8591 -0.27413,-0.5193 -0.49842,-1.14312 -0.49842,-1.38625 0,-0.6381 -0.98853,-3.638087 -1.55714,-4.725584 -0.26697,-0.510608 -0.48621,-1.142523 -0.48719,-1.404255 -0.002,-0.562643 -1.19301,-4.150617 -1.5082,-4.543914 -0.12006,-0.149813 -0.29828,-0.674515 -0.39605,-1.166004 -0.25271,-1.270339 -1.19544,-4.119413 -1.56294,-4.723404 -0.17088,-0.280851 -0.3903,-0.912766 -0.4876,-1.404256 -0.0973,-0.491489 -0.44198,-1.640425 -0.76596,-2.553191 -1.03452,-2.914686 -1.12168,-3.168078 -1.53685,-4.468085 -0.3799,-1.189568 -0.69446,-2.278635 -0.92183,-3.19149 -0.0831,-0.333847 1.03463,-0.392118 8.71312,-0.454225 4.84469,-0.03919 9.06291,-0.0093 9.37383,0.0664 0.40345,0.09823 0.64821,0.445481 0.85482,1.212756 0.15922,0.591312 0.45058,1.305083 0.64745,1.586157 0.19687,0.281075 0.35795,0.700603 0.35795,0.932284 0,0.564967 1.13373,3.996041 1.63712,4.954503 0.22126,0.421276 0.4037,1.053191 0.40543,1.404255 0.002,0.351064 0.16395,0.946516 0.36049,1.323227 0.19654,0.376712 0.44093,1.066073 0.5431,1.531915 0.10217,0.465842 0.40024,1.247412 0.66237,1.736822 0.26212,0.48941 0.47659,1.161408 0.47659,1.493329 0,0.331921 0.15519,0.965537 0.34486,1.408036 0.73672,1.718745 1.43457,3.657408 1.66821,4.634331 0.13433,0.561702 0.54933,1.825532 0.92222,2.80851 0.37289,0.982979 0.83505,2.406861 1.02702,3.164183 0.19197,0.75732 0.47048,1.49838 0.6189,1.64681 0.14842,0.14842 0.26986,0.50709 0.26986,0.79704 0,0.28995 0.21233,0.92761 0.47184,1.41702 0.25952,0.48941 0.54657,1.36851 0.6379,1.95355 0.0913,0.58504 0.32772,1.3893 0.52532,1.78723 0.44563,0.89741 1.2647,3.19436 1.62368,4.55331 0.34149,1.29276 1.01404,3.19347 1.32141,3.73453 0.12979,0.22846 0.31491,0.86037 0.41138,1.40425 0.0965,0.54389 0.32899,1.33356 0.5167,1.75484 0.51666,1.15955 1.13234,2.91749 1.52013,4.34043 0.19135,0.70212 0.64971,2.08085 1.01858,3.06383 0.36887,0.98298 0.81421,2.3617 0.98964,3.06383 0.17544,0.70212 0.44586,1.50638 0.60095,1.78723 0.34976,0.63338 1.02866,2.68793 1.39083,4.20904 0.14997,0.62987 0.41866,1.37667 0.59709,1.65958 0.17843,0.28289 0.40641,0.91649 0.50663,1.40798 0.10021,0.49149 0.27169,1.00851 0.38107,1.14893 0.10937,0.14043 0.37032,0.88724 0.57988,1.65958 0.20956,0.77234 0.73872,2.3799 1.17591,3.57237 0.43719,1.19246 0.79879,2.3414 0.80355,2.55319 0.005,0.21179 0.23065,0.84465 0.50198,1.40635 0.27132,0.5617 0.49791,1.19362 0.50354,1.40426 0.006,0.21064 0.17758,0.70379 0.3821,1.09589 0.20452,0.3921 0.44914,1.13891 0.54358,1.65957 0.0944,0.52067 0.38598,1.37294 0.64785,1.89394 0.26186,0.521 0.47682,1.15292 0.47769,1.40425 7.7e-4,0.25134 0.15704,0.75491 0.34705,1.11904 0.19001,0.36412 0.42722,1.0978 0.52713,1.63037 0.0999,0.53258 0.40331,1.3819 0.67423,1.88736 0.27091,0.50547 0.49257,1.12751 0.49257,1.3823 0,0.2548 0.15699,0.77352 0.34886,1.15272 0.19187,0.3792 0.43001,1.1371 0.52921,1.68423 0.0992,0.54712 0.33791,1.23648 0.53047,1.53191 0.19257,0.29543 0.46131,0.99671 0.5972,1.55842 0.24749,1.02296 0.36369,1.37973 1.45539,4.46808 0.32265,0.91277 0.64888,1.86064 0.72495,2.10639 0.0761,0.24574 0.28554,0.44602 0.46548,0.44506 0.36211,-0.002 1.4761,-1.51067 1.4761,-1.99916 0,-0.17035 0.22979,-0.96351 0.51064,-1.76258 0.28085,-0.79907 0.51064,-1.74578 0.51064,-2.10379 0,-0.35801 0.21493,-1.05195 0.47763,-1.5421 0.26271,-0.49014 0.55994,-1.37826 0.66052,-1.9736 0.10058,-0.59534 0.28113,-1.14316 0.40122,-1.21738 0.1201,-0.0742 0.28906,-0.67802 0.37547,-1.34177 0.0864,-0.66375 0.36732,-1.72383 0.62423,-2.35575 0.72492,-1.78307 1.55383,-4.65463 1.54973,-5.36872 -0.002,-0.35493 0.15502,-0.87195 0.34902,-1.14894 0.3809,-0.54387 1.01479,-2.65097 1.5341,-5.09952 0.17871,-0.84263 0.44641,-1.76178 0.59489,-2.04255 0.3233,-0.61136 1.02009,-3.19765 1.47889,-5.4892 0.18275,-0.91277 0.50124,-2.1766 0.70777,-2.80852 0.61698,-1.88779 1.20322,-4.49466 1.21518,-5.4036 0.006,-0.46844 0.18874,-1.31129 0.40572,-1.87299 0.21698,-0.5617 0.54657,-1.96387 0.73243,-3.11592 0.18585,-1.15206 0.40947,-2.21043 0.49693,-2.35194 0.0875,-0.14151 0.26531,-1.46716 0.39523,-2.94588 0.12992,-1.47872 0.36866,-2.93605 0.53053,-3.23852 0.57047,-1.06592 1.48932,-12.58445 1.49419,-18.73072 0.005,-5.825709 -0.91262,-16.382916 -1.4831,-17.070304 -0.14794,-0.178253 -0.38274,-1.325269 -0.52178,-2.548923 -0.13904,-1.223655 -0.31772,-2.329862 -0.39706,-2.458237 -0.0793,-0.128376 -0.26184,-0.869498 -0.40556,-1.646939 -0.14372,-0.77744 -0.47648,-1.904301 -0.73947,-2.504135 -0.26299,-0.599835 -0.5139,-1.60763 -0.55757,-2.239545 l -0.0794,-1.148936 13.65459,-0.06636 c 7.51003,-0.0365 13.798,-0.01146 13.97326,0.05563 0.24116,0.09232 0.19459,0.436754 -0.19149,1.416234 -0.28058,0.711837 -0.51015,1.51671 -0.51015,1.788606 0,0.271896 -0.21535,0.985727 -0.47857,1.586293 -0.62546,1.427098 -1.05003,2.641118 -1.36406,3.900447 -0.14007,0.561702 -0.41092,1.365957 -0.60188,1.787234 -0.59059,1.302886 -1.17035,3.006828 -1.47682,4.340425 -0.16135,0.702128 -0.38396,1.4171 -0.49468,1.588827 -0.31604,0.490166 -1.20851,3.144541 -1.48316,4.411173 -0.13701,0.631915 -0.37075,1.366667 -0.51942,1.632781 -0.37874,0.677979 -1.22196,3.127042 -1.54631,4.491154 -0.14976,0.629865 -0.41829,1.376675 -0.59672,1.659575 -0.17843,0.2829 -0.40397,0.8955 -0.50121,1.36135 -0.0972,0.46584 -0.33759,1.1552 -0.53413,1.53191 -0.19653,0.37671 -0.35875,0.97217 -0.36048,1.32323 -0.002,0.35106 -0.18317,0.98298 -0.40321,1.40425 -0.22002,0.42128 -0.68785,1.68511 -1.03961,2.80852 -0.67237,2.14733 -0.72845,2.31494 -1.90463,5.69313 -0.40571,1.16527 -0.73766,2.29648 -0.73766,2.5138 0,0.21732 -0.17078,0.70009 -0.37951,1.07282 -0.5035,0.8991 -1.13292,2.70533 -1.43727,4.1245 -0.13553,0.63192 -0.36804,1.36667 -0.5167,1.63278 -0.40413,0.72341 -1.24289,3.19641 -1.50853,4.4477 -0.12864,0.60596 -0.39916,1.41021 -0.60114,1.78723 -0.44234,0.82561 -1.13056,2.87465 -1.41499,4.21277 -0.11387,0.53576 -0.38485,1.34001 -0.60218,1.78724 -0.4765,0.98056 -1.45395,4.02356 -1.45615,4.53326 -7.6e-4,0.20074 -0.1826,0.70966 -0.40385,1.13094 -0.48271,0.91908 -1.63713,4.38002 -1.63713,4.90808 0,0.20616 -0.17134,0.67979 -0.38076,1.05252 -0.4567,0.81285 -1.66179,4.52688 -1.66179,5.12156 0,0.23168 -0.17882,0.67654 -0.39739,0.98858 -0.38715,0.55274 -0.87964,2.06668 -1.43046,4.39734 -0.14934,0.63192 -0.41465,1.32128 -0.58957,1.53192 -0.17492,0.21063 -0.44428,0.84255 -0.59858,1.40425 -0.85931,3.12808 -1.09996,3.90067 -1.43153,4.59575 -0.44779,0.93873 -1.42481,3.99575 -1.42481,4.45811 0,0.18536 -0.22077,0.80918 -0.49061,1.38626 -0.26983,0.57708 -0.73946,1.91094 -1.04361,2.96414 -0.30415,1.05319 -0.72973,2.25957 -0.94572,2.68085 -0.21599,0.42127 -0.54489,1.34042 -0.73089,2.04255 -0.85479,3.22667 -1.07396,3.7861 -1.65971,4.23637 -0.57629,0.44298 -1.23507,0.47607 -9.58395,0.48136 l -8.96514,0.006 z"
       id="path465" />
    <path
       style="fill:#ffffff;fill-opacity:1;stroke-width:3.82979;stop-color:#000000"
       d="m 451.95937,184.18965 -0.57977,-0.40609 0.0371,-24.80667 c 0.0204,-13.64367 0.12943,-27.54482 0.24226,-30.89144 0.1974,-5.85483 0.23023,-6.1331 0.86883,-7.36399 0.36503,-0.70357 0.66539,-1.69947 0.66746,-2.21311 0.002,-0.51363 0.1738,-1.65505 0.38161,-2.53647 0.20782,-0.88142 0.36317,-2.23911 0.34523,-3.01709 -0.0374,-1.62381 0.32346,-2.22291 0.95726,-1.58911 0.57288,0.57288 0.78339,1.85852 0.57556,3.5151 -0.29576,2.35741 -0.23924,5.70609 0.10795,6.39582 0.38778,0.77036 1.47371,0.9695 2.06461,0.3786 0.30789,-0.30789 0.41507,-0.89945 0.41507,-2.29085 0,-2.35962 0.1355,-2.76559 0.8037,-2.40798 0.84622,0.45288 1.02978,1.38722 0.59908,3.04934 -0.3569,1.37733 -0.35242,1.57312 0.0566,2.46854 0.24433,0.53491 0.70702,1.31724 1.0282,1.73852 0.86318,1.13221 0.91853,1.20909 1.47059,2.04255 0.27904,0.42128 0.8526,1.45532 1.27459,2.29787 l 0.76724,1.53192 1.68322,0.0746 c 2.44545,0.10835 2.40189,0.21333 2.40189,-5.78894 v -4.99452 l 1.576,-0.90088 c 0.86679,-0.49549 1.91224,-1.08666 2.32321,-1.31373 0.73872,-0.40815 0.74927,-0.44589 0.92779,-3.31914 0.16005,-2.57612 0.2587,-3.01987 0.86827,-3.9059 1.05443,-1.53264 2.57404,-2.9983 4.26218,-4.11088 0.84255,-0.55528 2.10638,-1.44167 2.80851,-1.96975 0.70212,-0.52807 1.56383,-0.96004 1.91489,-0.95993 0.66415,2.2e-4 2.21138,0.83332 3.31638,1.78569 1.54141,1.32851 3.46009,2.55233 4.00146,2.55233 0.79614,0 0.99273,-0.9009 0.61525,-2.81955 -0.3166,-1.60924 -0.99543,-7.170182 -1.21418,-9.946405 -0.12596,-1.598602 0.7174,-7.764784 1.18721,-8.6802 0.10828,-0.210996 0.27249,-0.802935 0.3649,-1.315422 0.0924,-0.512484 0.33733,-1.072297 0.54425,-1.244027 C 491.8307,83.056706 492,82.798129 492,82.653822 c 0,-0.362083 1.34178,-3.063516 1.67744,-3.377226 0.15025,-0.140426 0.48571,-0.6 0.74547,-1.021277 1.05682,-1.713947 6.71128,-7.711146 7.70328,-8.170213 0.73136,-0.338448 3.18472,-2.464925 4.86035,-4.212766 2.83938,-2.961727 3.48908,-3.574468 3.79007,-3.574468 0.17099,0 0.97671,-0.517021 1.79049,-1.148936 C 513.38088,60.517021 514.12773,60 514.22677,60 c 0.099,0 1.86246,-1.69187 3.91871,-3.759711 l 3.73865,-3.75971 -0.1146,-1.83868 c -0.063,-1.011274 -0.24148,-2.075759 -0.39656,-2.365521 -0.48459,-0.905465 -0.39466,-2.27559 0.20236,-3.083104 0.64409,-0.871181 0.74867,-2.678729 0.19098,-3.300829 -0.31018,-0.345994 -0.31096,-0.547728 -0.006,-1.42436 0.43063,-1.236153 0.28463,-1.859648 -0.61252,-2.615753 -0.6255,-0.527164 -0.63809,-0.573302 -0.15672,-0.574468 0.73854,-0.0018 1.13553,-0.486772 1.14008,-1.392758 0.002,-0.428297 0.10794,-0.943114 0.23509,-1.144037 0.16953,-0.267898 0.27903,-0.09769 0.41061,0.638298 0.0987,0.551986 0.41393,1.260919 0.70053,1.575405 0.50802,0.557455 0.50923,0.584893 0.0483,1.094248 -0.65974,0.728994 -0.84979,6.223811 -0.23863,6.899133 0.62166,0.686927 0.73479,2.111751 0.27485,3.461608 -0.54769,1.607379 -0.5364,3.753805 0.0244,4.641775 0.5111,0.809253 4.9537,5.290544 6.07287,6.125762 0.42127,0.314391 1.34042,0.939659 2.04255,1.389485 0.70213,0.449824 1.36848,0.965893 1.48077,1.146817 0.1123,0.180924 0.34849,0.328953 0.52487,0.328953 0.65005,0 1.96939,1.238048 2.65282,2.489367 0.71034,1.300611 1.39496,1.9819 3.25643,3.240587 2.47083,1.670719 6.7867,5.745628 9.20978,8.695578 0.69207,0.842553 1.38761,1.646809 1.54564,1.787234 0.15803,0.140426 0.62704,0.887234 1.04223,1.659575 0.4152,0.77234 0.88825,1.634042 1.05122,1.914893 0.36239,0.624508 1.01566,2.464961 1.34624,3.792776 0.13478,0.541346 0.44036,1.345601 0.67908,1.787234 0.37849,0.700216 0.43316,1.68513 0.4272,7.696586 -0.005,5.075847 -0.0943,7.095597 -0.33838,7.659577 -0.47005,1.08597 -0.76687,3.47117 -0.51508,4.13915 0.19004,0.50417 0.29601,0.5357 0.98884,0.29417 0.4268,-0.14878 0.776,-0.35115 0.776,-0.4497 0,-0.0986 0.94787,-0.80146 2.10638,-1.56201 1.15851,-0.76055 2.22973,-1.50165 2.38048,-1.6469 0.15075,-0.14524 0.6833,-0.48416 1.18345,-0.75316 l 0.90936,-0.48908 0.82172,0.93589 c 0.45195,0.51474 0.97812,0.93589 1.16927,0.93589 0.19115,0 0.47052,0.22979 0.62083,0.51064 0.15031,0.28085 0.37838,0.51064 0.50682,0.51064 0.43282,0 2.67562,1.63725 3.86636,2.82245 1.62052,1.61298 2.25078,3.15037 2.55871,6.24138 0.28481,2.85895 0.51361,3.21553 2.38726,3.72065 0.5617,0.15143 1.30851,0.41459 1.65957,0.58479 l 0.6383,0.30946 0.0691,5.33237 c 0.0404,3.11714 0.17659,5.46182 0.32777,5.64398 0.14225,0.1714 1.01979,0.45525 1.95011,0.63079 1.55807,0.29399 1.71849,0.28222 2.03393,-0.14918 0.18835,-0.25758 0.34245,-0.77698 0.34245,-1.15423 0,-0.37724 0.17235,-0.82892 0.38298,-1.00374 0.21064,-0.17481 0.38298,-0.4308 0.38298,-0.56887 0,-0.22748 0.73739,-1.24708 1.61974,-2.23964 1.49175,-1.67808 1.57414,-1.94499 1.524,-4.93731 -0.0495,-2.95314 0.23161,-3.99886 1.07491,-3.99886 0.41586,0 0.49328,0.65014 0.38833,3.26098 -0.0735,1.82861 0.21475,2.35604 1.28764,2.35604 1.25345,0 1.39095,-0.60788 1.3053,-5.77073 l -0.0767,-4.6218 0.62188,-0.40746 c 0.34203,-0.22411 0.69249,-0.33686 0.7788,-0.25055 0.0863,0.0863 0.15692,1.96668 0.15692,4.1786 0,2.21192 0.0697,4.20341 0.15498,4.42553 0.0852,0.22212 0.42587,0.40386 0.75697,0.40386 1.03456,0 1.19362,0.7775 1.43462,7.0123 0.33555,8.68143 0.33515,9.18309 -0.0127,15.7111 -0.23247,4.36274 -0.27202,10.74283 -0.14493,23.38078 0.13098,13.02383 0.10028,17.52 -0.12244,17.93617 -0.25392,0.47445 -0.51788,0.55539 -1.81119,0.55539 -1.23549,0 -1.56256,-0.0908 -1.77825,-0.49385 -0.15976,-0.29852 -0.2643,-2.76961 -0.2643,-6.24745 0,-5.3524 -0.0375,-5.82551 -0.53742,-6.78467 -0.5144,-0.98689 -3.62946,-4.09105 -4.10542,-4.09105 -0.49327,0 -2.15808,1.0122 -2.7961,1.70003 -0.37014,0.39903 -0.87976,1.12763 -1.1325,1.61912 -0.65945,1.28242 -1.11089,5.14617 -1.1215,9.59873 -0.008,3.40239 -0.0639,3.90356 -0.4761,4.27659 -0.39233,0.35506 -1.10108,0.42255 -4.43683,0.42255 -3.02254,0 -4.03821,-0.0823 -4.25615,-0.3449 -0.21071,-0.25389 -0.21196,-0.89683 -0.005,-2.43654 0.15482,-1.15041 0.23645,-3.89627 0.1814,-6.10191 -0.0969,-3.88356 -0.12228,-4.04209 -0.80212,-5.01755 -0.92297,-1.32432 -2.43835,-2.66819 -3.23592,-2.86968 -0.35106,-0.0887 -0.91214,-0.33868 -1.24684,-0.55553 -0.92277,-0.59788 -2.98435,-0.45408 -4.49872,0.31379 -2.09202,1.06079 -3.48696,3.3085 -3.80075,6.12428 -0.0916,0.82221 -0.27906,1.70509 -0.41652,1.96194 -0.13746,0.25685 -0.24993,2.14807 -0.24993,4.2027 0,2.08685 -0.11666,3.95367 -0.2643,4.22955 -0.2527,0.47216 -0.61642,0.49385 -8.27935,0.49385 h -8.01504 l -0.5455,-0.69349 c -0.54497,-0.69281 -0.54543,-0.70805 -0.46534,-15.38298 0.0856,-15.69086 -0.0483,-18.17863 -1.08874,-20.21798 -0.7055,-1.3829 -2.33613,-3.54599 -3.05002,-4.04597 -0.30076,-0.21064 -0.85452,-0.67021 -1.23058,-1.02128 -0.37606,-0.35106 -1.14207,-0.86808 -1.70223,-1.14893 -0.56016,-0.28085 -1.11036,-0.65426 -1.22265,-0.82979 -0.1123,-0.17553 -0.31138,-0.31915 -0.44241,-0.31915 -0.13103,0 -1.36043,-0.5261 -2.73199,-1.16911 -3.08271,-1.44523 -3.3652,-1.56374 -4.12828,-1.73198 -0.6497,-0.14325 -3.46435,0.7068 -4.11017,1.24131 -0.21064,0.17433 -1.12979,0.63862 -2.04255,1.03176 -0.91277,0.39314 -1.78714,0.86761 -1.94304,1.05439 -0.15591,0.18677 -0.37952,0.33959 -0.49692,0.33959 -0.96349,0 -5.81107,4.62312 -6.72724,6.41574 -0.31375,0.6139 -0.80773,2.15022 -1.09773,3.41404 -0.493,2.1485 -0.5338,3.26052 -0.62754,17.10639 -0.0552,8.14468 -0.15675,15.06702 -0.22579,15.38298 l -0.12551,0.57446 h -8.02322 c -7.95625,0 -8.02646,-0.005 -8.41333,-0.55697 -0.33074,-0.47221 -0.36593,-1.27991 -0.23122,-5.30735 0.18741,-5.60315 -0.0446,-6.70196 -1.87044,-8.8604 -1.27506,-1.50728 -3.78827,-2.8923 -5.2483,-2.8923 -1.6583,0 -4.15578,1.35337 -5.81167,3.14929 -1.40851,1.52763 -1.78346,3.41092 -1.79052,8.9934 -0.004,3.35703 -0.0955,4.73341 -0.3356,5.06177 -0.29503,0.40348 -0.73674,0.44225 -4.19222,0.36795 -2.12434,-0.0457 -3.95785,-0.17846 -4.07448,-0.29509 -0.11662,-0.11662 -0.26949,-3.10385 -0.3397,-6.6383 l -0.12766,-6.42625 -0.68939,-1.02128 c -1.13447,-1.68063 -1.55673,-2.10281 -2.6792,-2.6787 l -1.07072,-0.54935 -0.84018,0.59275 c -1.31111,0.92499 -2.80469,2.63477 -3.2357,3.70407 -0.29577,0.73379 -0.42748,2.42105 -0.5344,6.84613 -0.078,3.22978 -0.23485,6.01595 -0.34846,6.19149 -0.30694,0.47425 -2.99522,0.41118 -3.70641,-0.087 z m 12.96025,-23.19098 c 0.22064,-0.26586 0.2775,-2.29898 0.21243,-7.59575 -0.0858,-6.97982 -0.1094,-7.27042 -0.6764,-8.31117 -1.27153,-2.33395 -3.17876,-3.61965 -4.59326,-3.0964 -1.11822,0.41366 -2.76,2.48704 -3.31992,4.19268 -0.49519,1.50847 -0.54247,2.21495 -0.54247,8.10669 0,4.67952 0.0842,6.53846 0.30638,6.7606 0.47617,0.47616 8.21328,0.42527 8.61324,-0.0566 z m 123.79527,0.0566 c 0.22251,-0.2225 0.30639,-2.11414 0.30639,-6.90936 v -6.60298 l -0.92572,-1.89845 c -0.87167,-1.78757 -2.48982,-3.65176 -3.22395,-3.71414 -2.64349,-0.2246 -4.59639,1.98376 -5.27411,5.96406 -0.31847,1.87036 -0.40895,9.83122 -0.13281,11.68485 0.0937,0.62926 0.35109,1.28772 0.57189,1.46325 0.55275,0.43944 8.24033,0.45075 8.67831,0.0128 z m -102.29646,-1.1617 c 2.08207,-3.23858 2.09181,-3.27237 2.21144,-7.67402 0.0584,-2.14943 0.0259,-4.5622 -0.0723,-5.3617 -0.16699,-1.35995 -0.28206,-1.55459 -1.78526,-3.01982 -0.9522,-0.92815 -2.00886,-1.69704 -2.5938,-1.8874 -0.54286,-0.17666 -1.21366,-0.4772 -1.49065,-0.66786 -1.30726,-0.89981 -4.07516,0.0245 -6.02661,2.0126 -1.5483,1.57736 -1.64987,1.72694 -2.1129,3.11176 -0.34245,1.02422 -0.4207,2.35939 -0.4207,7.17834 0,5.60259 0.0284,5.95616 0.52917,6.59281 l 0.52917,0.67273 h 5.30845 5.30844 z m 82.15878,0.28471 c 0.29105,-0.37 0.52917,-0.83422 0.52917,-1.03161 0,-0.19739 0.24443,-0.68949 0.54318,-1.09357 0.48409,-0.65476 0.56324,-1.21507 0.72765,-5.15109 0.10147,-2.42903 0.15027,-4.5927 0.10844,-4.80817 -0.0418,-0.21547 -0.14461,-0.92464 -0.22838,-1.57594 -0.12044,-0.93628 -0.37793,-1.4173 -1.23004,-2.29787 -1.08679,-1.12307 -2.53765,-2.25529 -2.91051,-2.2713 -0.111,-0.005 -0.6614,-0.23065 -1.2231,-0.50197 -1.36928,-0.66141 -2.19881,-0.63286 -3.81404,0.13127 -1.27837,0.60477 -3.33345,2.49089 -3.90795,3.58667 -1.3515,2.57783 -1.50252,13.72857 -0.20534,15.16194 0.44969,0.49689 0.75251,0.52437 5.77816,0.52437 h 5.30359 z m -110.70679,-29.7497 c 0.3633,-0.57595 -0.004,-1.74773 -0.54762,-1.74773 -1.02135,0 -1.48733,1.51776 -0.62067,2.02164 0.54132,0.31472 0.84136,0.24437 1.16829,-0.27391 z m 130.58915,0.24376 c 0.49626,-0.49625 0.35309,-1.34797 -0.33529,-1.99467 -0.90227,-0.84764 -1.32103,-0.23763 -1.18526,1.72659 0.0445,0.64375 0.97995,0.80868 1.52055,0.26808 z M 472.53758,125.1651 c 0.0594,-3.937 0.0104,-4.6658 -0.33738,-5.01353 -0.55176,-0.55176 -1.28691,-0.51167 -1.90233,0.10375 -0.46889,0.46889 -0.51064,0.85106 -0.51064,4.6746 0,4.35782 0.11795,4.88004 1.14894,5.08691 0.28085,0.0564 0.74043,0.0242 1.02128,-0.0713 0.48176,-0.16395 0.51457,-0.4343 0.58013,-4.78042 z m 102.39008,4.74128 c 0.21192,-0.21192 0.30638,-1.52556 0.30638,-4.26079 0,-3.68064 -0.0398,-4.01284 -0.57447,-4.79826 -0.59435,-0.87304 -1.37616,-1.09244 -1.92765,-0.54095 -0.21461,0.21461 -0.30639,1.62516 -0.30639,4.70893 0,4.26003 0.0184,4.41541 0.56745,4.8 0.67744,0.4745 1.51197,0.51378 1.93468,0.0911 z m -97.78723,-0.76595 c 0.64323,-0.64324 0.1191,-5.76432 -0.61438,-6.00284 -0.15536,-0.0505 -0.64365,0.24555 -1.08511,0.65793 -0.77675,0.72559 -0.80264,0.81895 -0.80264,2.89415 0,2.38234 0.19089,2.75714 1.40425,2.75714 0.43532,0 0.92937,-0.13787 1.09788,-0.30638 z m 8.07914,-0.26107 c 0.47144,-0.67308 0.49642,-1.40776 0.11283,-3.31779 -0.48364,-2.40823 -2.15821,-3.46611 -3.73661,-2.36055 -1.13909,0.79785 -1.77912,4.82726 -0.91792,5.77888 0.33573,0.37097 0.80489,0.46691 2.28339,0.46691 1.63351,0 1.9094,-0.0693 2.25831,-0.56745 z m 70.99087,0.0594 c 0.38418,-0.42451 0.43513,-0.79193 0.30978,-2.23404 -0.18079,-2.08005 -0.60881,-3.38555 -1.10999,-3.38555 -0.20329,0 -0.65162,0.28201 -0.9963,0.62669 -0.56059,0.56059 -0.6267,0.84145 -0.6267,2.66262 0,1.51041 0.10357,2.13948 0.40122,2.43713 0.55147,0.55148 1.47015,0.50293 2.02199,-0.10685 z m 7.80634,0.24377 c 0.39277,-0.2102 0.49261,-0.53684 0.48777,-1.59575 -0.009,-1.95221 -0.37272,-3.20846 -1.17016,-4.0408 -0.94909,-0.99064 -1.83135,-0.9618 -2.82453,0.0923 -0.93513,0.99252 -1.36092,2.15645 -1.36092,3.72012 0,1.72125 0.45875,2.08839 2.60954,2.08839 0.97045,0 1.98669,-0.11894 2.2583,-0.2643 z m 5.8045,-0.0421 c 0.19187,-0.19188 0.30638,-1.1461 0.30638,-2.5532 0,-1.92872 -0.0745,-2.32132 -0.52634,-2.77314 -0.751,-0.751 -1.30259,-0.52856 -1.946,0.78477 -0.79605,1.62489 -0.80835,3.90114 -0.024,4.45049 0.6756,0.47321 1.76265,0.51842 2.18999,0.0911 z m -78.89747,-2.53881 c 0.0588,-1.98908 -0.006,-2.54101 -0.33738,-2.87234 -1.19494,-1.19494 -2.46755,0.42226 -2.51408,3.19482 -0.0344,2.04666 0.17505,2.30956 1.75744,2.20635 l 1.02127,-0.0666 z"
       id="path467" />
  </g>
</svg>
