<?xml version="1.0" encoding="UTF-8" standalone="no"?>
<svg
   width="2426.4873"
   height="263.23447"
   viewBox="0 0 187.08799 20.296009"
   version="1.1"
   id="svg10"
   sodipodi:docname="logo_michelin.svg"
   inkscape:version="1.2.2 (732a01da63, 2022-12-09)"
   xmlns:inkscape="http://www.inkscape.org/namespaces/inkscape"
   xmlns:sodipodi="http://sodipodi.sourceforge.net/DTD/sodipodi-0.dtd"
   xmlns="http://www.w3.org/2000/svg"
   xmlns:svg="http://www.w3.org/2000/svg">
  <defs
     id="defs14" />
  <sodipodi:namedview
     id="namedview12"
     pagecolor="#ffffff"
     bordercolor="#000000"
     borderopacity="0.25"
     inkscape:showpageshadow="2"
     inkscape:pageopacity="0.0"
     inkscape:pagecheckerboard="0"
     inkscape:deskcolor="#d1d1d1"
     showgrid="false"
     inkscape:zoom="0.105"
     inkscape:cx="576.19048"
     inkscape:cy="1019.0476"
     inkscape:window-width="1366"
     inkscape:window-height="705"
     inkscape:window-x="-8"
     inkscape:window-y="-8"
     inkscape:window-maximized="1"
     inkscape:current-layer="g8" />
  <g
     fill-rule="evenodd"
     clip-rule="evenodd"
     id="g8"
     transform="translate(-2.834,-86.234142)">
    <path
       d="M 2.834,106.268 V 86.476 h 12.064 l 3.205,8.906 3.299,-8.906 h 12.723 v 19.792 H 24.324 V 97.22 l -3.677,9.048 h -4.994 l -3.771,-9.142 v 9.142 z m 151.912,0 V 86.476 h -9.66 v 19.792 z m -28.84,-19.792 v 19.792 h 17.719 v -6.739 h -7.256 V 86.476 Z m -52.65,0 v 19.792 h 9.943 v -6.409 h 5.655 v 6.409 H 98.75 V 86.476 h -9.896 v 7.068 h -5.655 v -7.068 z m 27.533,0 v 19.792 h 22.949 v -5.089 h -12.629 v -1.933 h 12.629 v -4.571 h -12.629 v -1.932 h 12.629 v -6.267 z m 55.996,19.792 V 86.476 h 9.897 l 6.314,7.728 v -7.728 h 9.803 v 19.792 h -8.672 l -7.162,-7.776 v 7.776 z M 70.771,86.806 c -4.335,-0.707 -13.949,-0.896 -16.683,0.235 -2.733,1.131 -6.597,3.299 -6.409,9.708 0.188,6.408 4.147,7.822 6.032,8.671 1.885,0.848 9.001,2.026 17.201,-0.047 l -0.141,-6.174 c -2.592,0.377 -12.724,2.686 -12.63,-2.45 C 58.228,92.037 67,93.78 70.771,93.827 Z M 45.983,106.268 V 86.476 h -9.66 v 19.792 z M 189.219,87.252 a 2.322,2.322 0 0 0 -1.699,-0.699 c -0.66,0 -1.223,0.233 -1.689,0.699 a 2.301,2.301 0 0 0 -0.701,1.692 c 0,0.667 0.23,1.234 0.695,1.702 0.465,0.471 1.031,0.706 1.695,0.706 0.664,0 1.23,-0.235 1.699,-0.706 0.469,-0.47 0.703,-1.038 0.703,-1.702 0,-0.662 -0.234,-1.226 -0.703,-1.692 z m -0.239,3.163 c -0.4,0.405 -0.889,0.608 -1.461,0.608 -0.572,0 -1.059,-0.203 -1.461,-0.608 a 2.021,2.021 0 0 1 -0.598,-1.47 c 0,-0.57 0.201,-1.058 0.602,-1.46 a 1.98,1.98 0 0 1 1.457,-0.608 c 0.57,0 1.059,0.203 1.461,0.608 a 2,2 0 0 1 0.602,1.46 c 0,0.575 -0.201,1.065 -0.602,1.47 z"
       id="path4"
       style="fill:#ffffff" />
    <path
       d="m 188.588,90.222 a 0.464,0.464 0 0 1 -0.023,-0.137 3.44,3.44 0 0 1 -0.006,-0.196 v -0.193 a 0.726,0.726 0 0 0 -0.145,-0.409 c -0.096,-0.139 -0.246,-0.225 -0.453,-0.258 0.162,-0.026 0.291,-0.068 0.383,-0.127 0.172,-0.111 0.258,-0.284 0.258,-0.52 0,-0.331 -0.137,-0.553 -0.408,-0.667 -0.152,-0.063 -0.393,-0.095 -0.719,-0.095 h -0.922 v 2.633 h 0.463 v -1.039 h 0.367 c 0.246,0 0.418,0.028 0.516,0.085 0.166,0.098 0.248,0.299 0.248,0.604 v 0.209 l 0.01,0.085 a 1.055,1.055 0 0 0 0.014,0.055 h 0.434 z m -0.713,-1.389 c -0.098,0.04 -0.244,0.059 -0.441,0.059 h -0.418 v -0.954 h 0.396 c 0.258,0 0.443,0.033 0.561,0.098 0.115,0.065 0.174,0.194 0.174,0.386 -0.001,0.202 -0.09,0.34 -0.272,0.411 z"
       id="path6"
       style="fill:#ffffff" />
  </g>
</svg>
